<svg width="335" height="251" viewBox="0 0 335 251" fill="none" xmlns="http://www.w3.org/2000/svg">
<path d="M147.801 111.176C147.801 111.176 166.661 113.736 164.986 141.237H149.292L147.801 111.176Z" fill="#35219A"/>
<path opacity="0.46" d="M149.292 141.237L147.801 111.176C147.801 111.176 166.661 113.736 164.986 141.237" fill="white"/>
<path d="M175.583 118C175.583 118 176.814 141.976 165.518 145.633C154.222 149.289 184.594 154 184.594 154L192 129.934L175.583 118Z" fill="#F4A28C"/>
<path d="M190.949 61.152C190.949 61.152 191.51 66.5067 193.067 69.845C193.222 70.1678 193.438 70.4569 193.704 70.6958C193.971 70.9346 194.282 71.1185 194.62 71.2367C194.958 71.3549 195.316 71.4052 195.673 71.3846C196.03 71.364 196.38 71.2729 196.702 71.1167C197.772 70.6865 198.695 69.9574 199.36 69.0165C200.026 68.0757 200.406 66.9632 200.454 65.8122L201.141 60.8843C201.178 59.8845 200.903 58.8979 200.354 58.0613C199.805 57.2248 199.009 56.5797 198.076 56.2157C194.675 54.6678 190.463 57.8974 190.949 61.152Z" fill="#F4A28C"/>
<path d="M202.255 63.6533L205.764 80.9639L196.074 82.2189L197.381 69.4514L202.255 63.6533Z" fill="#F4A28C"/>
<path d="M211.116 79.9606C217.547 78.9262 224.135 80.274 229.641 83.7507C235.973 87.8503 241.835 95.5811 239.943 110.064C236.157 139.038 224.951 156.532 224.951 156.532L185.38 159.804C185.38 159.804 184.391 140.786 177.842 130.169C171.293 119.552 162.767 91.6823 196.049 82.2028L211.116 79.9606Z" fill="#35219A"/>
<path d="M191.496 64.5068L190.415 66.8328C190.345 66.9633 190.312 67.1099 190.317 67.2577C190.322 67.4055 190.367 67.5493 190.446 67.6743C190.525 67.7993 190.636 67.9011 190.768 67.9693C190.899 68.0376 191.046 68.0698 191.194 68.0627H193.296L191.496 64.5068Z" fill="#F4A28C"/>
<path opacity="0.31" d="M197.338 69.8115C198.483 69.4549 199.508 68.7923 200.303 67.8955C200.303 67.8955 201.417 71.6019 196.953 73.4677L197.338 69.8115Z" fill="#CE8172"/>
<path d="M197.749 63.7457C197.749 63.7457 197.397 61.6959 198.963 61.562C200.529 61.4282 201.048 64.3732 199.022 65.0509L197.749 63.7457Z" fill="#F4A28C"/>
<path d="M192.031 60.6913C193.769 60.7779 195.51 60.5743 197.182 60.0889C197.182 60.0889 198.949 65.9456 203.84 66.8743C203.84 66.8743 207.307 57.4869 201.428 54.6673C196.495 52.3079 192.785 50.141 189.385 53.998C188.892 54.5566 188.564 55.2403 188.435 55.9736C188.307 56.7068 188.384 57.4612 188.658 58.1536C188.932 58.8459 189.391 59.4493 189.987 59.8971C190.582 60.3449 191.289 60.6197 192.031 60.6913Z" fill="#24285B"/>
<path d="M204.193 57.1528C207.157 57.1528 209.561 54.7517 209.561 51.7898C209.561 48.8279 207.157 46.4268 204.193 46.4268C201.228 46.4268 198.824 48.8279 198.824 51.7898C198.824 54.7517 201.228 57.1528 204.193 57.1528Z" fill="#24285B"/>
<path d="M191.007 83.9257C191.007 83.9257 190.714 80.3782 196.032 78.6797C201.35 76.9813 209.264 72.89 211.157 79.9598L191.007 83.9257Z" fill="#35219A"/>
<path opacity="0.46" d="M191.007 83.9257C191.007 83.9257 190.714 80.3782 196.032 78.6797C201.35 76.9813 209.264 72.89 211.157 79.9598L191.007 83.9257Z" fill="white"/>
<path d="M197.441 63.2272C197.441 63.2272 197.441 60.8259 199.351 60.9765C201.26 61.1271 201.587 63.9216 199.351 65.2937L197.441 63.2272Z" fill="#F4A28C"/>
<path d="M110.156 39.959V56.6923H120.977L123.347 63.3522L126.144 56.6923H136.965V39.959H110.156Z" fill="#E6E6E6"/>
<path opacity="0.12" d="M122.209 52.0572C122.087 52.052 121.968 52.02 121.859 51.9636C121.75 51.9073 121.656 51.8278 121.581 51.7309L118.75 48.0914C118.675 48.0055 118.618 47.9051 118.583 47.7963C118.548 47.6876 118.536 47.5729 118.547 47.4592C118.558 47.3455 118.592 47.2353 118.648 47.1353C118.703 47.0354 118.778 46.9478 118.869 46.878C118.959 46.8082 119.063 46.7576 119.174 46.7295C119.285 46.7013 119.4 46.696 119.513 46.7141C119.626 46.7321 119.734 46.7731 119.83 46.8344C119.927 46.8957 120.009 46.9762 120.074 47.0707L122.276 49.9321L127.762 44.0085C127.917 43.8476 128.13 43.755 128.354 43.7511C128.578 43.7472 128.794 43.8322 128.955 43.9876C129.116 44.1429 129.209 44.3558 129.213 44.5794C129.217 44.803 129.132 45.0189 128.976 45.1798L122.821 51.823C122.74 51.901 122.644 51.962 122.539 52.0023C122.434 52.0425 122.322 52.0612 122.209 52.0572Z" fill="black"/>
<path d="M183.211 16.5322V33.2656H194.031L196.402 39.9254L199.199 33.2656H210.019V16.5322H183.211Z" fill="#E6E6E6"/>
<path opacity="0.12" d="M195.263 28.6305C195.141 28.6262 195.022 28.5956 194.914 28.5406C194.805 28.4857 194.71 28.4079 194.635 28.3125L191.787 24.673C191.719 24.5859 191.669 24.4861 191.639 24.3795C191.61 24.2729 191.602 24.1615 191.616 24.0518C191.63 23.9421 191.666 23.8362 191.721 23.7404C191.776 23.6445 191.85 23.5605 191.938 23.4933C192.113 23.3584 192.335 23.2985 192.555 23.3267C192.775 23.3549 192.975 23.469 193.11 23.6439L195.338 26.5053L200.824 20.5817C200.901 20.5021 200.993 20.4383 201.094 20.3942C201.196 20.35 201.305 20.3263 201.416 20.3243C201.527 20.3224 201.637 20.3423 201.74 20.3829C201.843 20.4234 201.937 20.4839 202.017 20.5608C202.097 20.6377 202.161 20.7296 202.205 20.8311C202.249 20.9327 202.273 21.0419 202.275 21.1526C202.277 21.2633 202.257 21.3733 202.216 21.4764C202.176 21.5794 202.115 21.6734 202.038 21.7531L195.874 28.3962C195.793 28.4743 195.697 28.5352 195.592 28.5755C195.487 28.6157 195.375 28.6344 195.263 28.6305Z" fill="black"/>
<path d="M127.609 84.1854C127.609 84.1854 127.877 90.042 126.772 93.8823C126.66 94.2537 126.475 94.5994 126.23 94.8997C125.984 95.1999 125.681 95.4488 125.339 95.6322C124.997 95.8155 124.622 95.9298 124.235 95.9683C123.849 96.0069 123.459 95.969 123.087 95.8569C121.161 95.2545 118.723 93.8823 118.204 90.7616L116.663 85.5742C116.46 84.5061 116.592 83.4013 117.042 82.4112C117.492 81.4211 118.237 80.5942 119.176 80.0439C122.576 77.81 127.626 80.6128 127.609 84.1854Z" fill="#F4A28C"/>
<path d="M117.033 88.2178L114.855 107.31L125.467 107.754L122.795 93.6896L117.033 88.2178Z" fill="#F4A28C"/>
<path d="M126.145 84.3694C124.331 84.3671 122.524 84.1537 120.76 83.7336C121.251 84.5515 121.491 85.4948 121.453 86.4476C121.414 87.4003 121.097 88.321 120.542 89.0966C120.016 89.8556 119.243 90.4089 118.354 90.6622C117.465 90.9154 116.516 90.853 115.668 90.4855L116.07 82.9555C116.1 81.8865 116.416 80.8451 116.986 79.94C117.556 79.0349 118.359 78.2993 119.311 77.81C120.144 77.3799 121.002 77.0026 121.882 76.6805C124.085 75.9024 127.2 77.5171 129.21 76.0948C129.413 75.9576 129.647 75.875 129.891 75.8552C130.135 75.8354 130.379 75.8791 130.601 75.9819C130.823 76.0847 131.014 76.2431 131.157 76.4418C131.299 76.6405 131.387 76.8726 131.413 77.1155C131.656 79.4164 131.095 82.9722 127.946 84.1268C127.363 84.3073 126.755 84.3893 126.145 84.3694Z" fill="#24285B"/>
<path d="M121.17 88.946C121.17 88.946 121.22 86.687 119.495 86.7958C117.77 86.9046 117.703 90.1425 119.998 90.5524L121.17 88.946Z" fill="#F4A28C"/>
<path d="M127.592 87.8496L129.133 90.1755C129.219 90.3082 129.27 90.4602 129.282 90.6176C129.294 90.775 129.266 90.9329 129.201 91.0768C129.136 91.2207 129.036 91.3461 128.91 91.4415C128.784 91.5369 128.636 91.5993 128.48 91.623L126.219 91.9493L127.592 87.8496Z" fill="#F4A28C"/>
<path opacity="0.31" d="M122.644 94.1506C121.284 94.151 119.954 93.7556 118.816 93.0127C118.816 93.0127 118.967 96.5602 123.565 98.9698L122.644 94.1506Z" fill="#CE8172"/>
<path d="M139.861 108.499C139.861 108.499 98.5132 100.584 84.3845 108.499C70.2559 116.414 99.8866 190.074 99.8866 190.074L143.437 188.702C143.437 188.702 181.543 116.071 139.861 108.499Z" fill="#35219A"/>
<path d="M140.266 141.581C140.266 141.581 145.157 135.674 148.507 136.511C151.857 137.348 151.857 144.334 142.502 147.53L140.266 141.581Z" fill="#F4A28C"/>
<path opacity="0.08" d="M95.2496 112.615C95.2496 112.615 108.725 118.589 107.678 138.669C106.631 158.749 134.545 149.546 150.315 140.961L142.501 169.843H86.5312V131.557L95.2496 112.615Z" fill="black"/>
<path d="M224.951 156.532L230.161 205.954L171.82 201.135L180.748 159.82L224.951 156.532Z" fill="#24285B"/>
<path opacity="0.08" d="M211.119 86.5449C211.119 86.5449 203.531 100.618 213.438 110.382C223.346 120.145 223.07 124.605 223.07 124.605L191.789 112.615L182.702 111.218L175.039 124.663C176.406 127.77 177.955 130.793 179.679 133.716L181.588 138.167L203.254 141.907C204.683 142.15 206.047 142.682 207.262 143.472C208.477 144.261 209.517 145.291 210.318 146.497C211.119 147.704 211.664 149.062 211.92 150.487C212.176 151.912 212.137 153.374 211.805 154.783L211.119 157.695L224.954 156.54C224.954 156.54 232.785 143.154 235.322 131.926C237.86 120.698 240.305 112.624 240.305 112.624L211.119 86.5449Z" fill="black"/>
<path opacity="0.58" d="M255.924 161.025C255.924 161.025 248.21 158.925 246.535 151.755C246.535 151.755 258.486 149.337 258.821 161.661L255.924 161.025Z" fill="#35219A"/>
<path opacity="0.73" d="M256.87 160.263C256.87 160.263 251.476 151.754 256.225 143.789C256.225 143.789 265.312 149.562 261.25 160.28L256.87 160.263Z" fill="#35219A"/>
<path d="M258.262 160.272C258.262 160.272 261.109 151.278 269.719 149.579C269.719 149.579 271.327 155.436 264.141 160.297L258.262 160.272Z" fill="#35219A"/>
<path d="M252.664 160.071L254.23 170.756L264.079 170.797L265.528 160.121L252.664 160.071Z" fill="#24285B"/>
<path d="M277.892 175.006H57.1016V227.264H277.892V175.006Z" fill="#C9C9C9"/>
<path d="M78.8508 112.506C72.511 119.886 66.6066 134.703 74.99 163.15C75.5698 165.112 76.5737 166.922 77.9307 168.454C79.2877 169.985 80.9648 171.201 82.8435 172.014C84.7223 172.827 86.7568 173.218 88.8034 173.16C90.85 173.101 92.8588 172.595 94.688 171.676L142.501 147.504L139.419 139.297L93.9258 155.62C93.9258 155.62 102.393 129.516 96.8571 115.393C96.175 113.689 95.0626 112.191 93.6282 111.044C92.1938 109.898 90.4865 109.143 88.6728 108.852C86.8591 108.561 85.0009 108.745 83.2795 109.385C81.5581 110.026 80.0323 111.101 78.8508 112.506Z" fill="#35219A"/>
<path opacity="0.46" d="M78.8508 112.506C72.511 119.886 66.6066 134.703 74.99 163.15C75.5698 165.112 76.5737 166.922 77.9307 168.454C79.2877 169.985 80.9648 171.201 82.8435 172.014C84.7223 172.827 86.7568 173.218 88.8034 173.16C90.85 173.101 92.8588 172.595 94.688 171.676L142.501 147.504L139.419 139.297L93.9258 155.62C93.9258 155.62 102.393 129.516 96.8571 115.393C96.175 113.689 95.0626 112.191 93.6282 111.044C92.1938 109.898 90.4865 109.143 88.6728 108.852C86.8591 108.561 85.0009 108.745 83.2795 109.385C81.5581 110.026 80.0323 111.101 78.8508 112.506Z" fill="white"/>
<path d="M278 170H57V179H278V170Z" fill="#E6E6E6"/>
<path opacity="0.08" d="M243.713 169.944C243.713 169.944 248.32 211.125 215.238 227.264H277.883V169.844L243.713 169.944Z" fill="black"/>
<path d="M182.016 111.176H186.429C187.85 111.178 189.212 111.743 190.217 112.747C191.222 113.75 191.787 115.111 191.789 116.53C191.789 117.234 191.651 117.93 191.381 118.58C191.112 119.229 190.717 119.82 190.219 120.317C189.722 120.814 189.131 121.208 188.48 121.478C187.83 121.747 187.133 121.885 186.429 121.885H182.016" stroke="#FFD200" stroke-width="2" stroke-miterlimit="10"/>
<path d="M210.991 88.1934C210.979 86.7488 211.32 85.3232 211.985 84.0403C212.65 82.7573 213.618 81.6559 214.805 80.8315C215.993 80.0071 217.364 79.4847 218.799 79.3096C220.235 79.1345 221.691 79.312 223.042 79.8267C228.997 82.0523 237.104 86.997 245.236 97.8904C261.006 119.016 265.612 124.455 259.122 131.775C252.631 139.096 198.336 122.99 198.336 122.99C198.336 122.99 186.611 121.108 188.613 114.624C190.614 108.14 200.287 115.46 200.287 115.46L239.147 119.016C239.147 119.016 211.326 106.257 210.991 88.1934Z" fill="#F4A28C"/>
<path d="M185.589 108.398H172.926V124.63H185.589V108.398Z" fill="#24285B"/>
<path opacity="0.13" d="M179.493 119.936C181.648 119.936 183.395 118.191 183.395 116.038C183.395 113.884 181.648 112.139 179.493 112.139C177.337 112.139 175.59 113.884 175.59 116.038C175.59 118.191 177.337 119.936 179.493 119.936Z" fill="white"/>
<path opacity="0.08" d="M190.339 145.822C190.339 145.822 177.282 167.425 146.562 169.843L181.738 169.985L190.339 145.822Z" fill="black"/>
<path opacity="0.2" d="M185.591 108.399C185.591 108.399 188.054 100.869 182.015 97.9905C175.977 95.1124 171.371 95.263 172.928 83.9262C174.486 72.5893 171.873 65.8709 159.369 63.6537C146.865 61.4366 132.569 71.761 142.502 82.2194C152.435 92.6777 164.444 87.1306 162.602 97.9905C160.759 108.85 172.903 108.399 172.903 108.399H185.591Z" fill="#35219A"/>
<path d="M187 137H139V170H187V137Z" fill="#FFD200"/>
<path d="M231 153H195V170H231V153Z" fill="#FFD200"/>
<path d="M193 151.019V157.986C192.998 158.343 193.07 158.698 193.212 159.026C193.353 159.355 193.56 159.651 193.821 159.896C194.081 160.141 194.389 160.329 194.726 160.45C195.062 160.57 195.42 160.619 195.777 160.595C196.485 160.601 197.175 160.377 197.745 159.957C198.315 159.536 198.734 158.943 198.939 158.264C200.059 154.692 203.626 155.585 203.519 157.929C203.411 160.272 206.751 161.817 208.427 159.873C210.103 157.929 209.989 154.388 213.221 155.877C216.453 157.365 215.454 160.392 219.805 158.936C224.157 157.479 222.152 153.014 224.606 155.25C225.922 156.447 227.136 157.675 228.572 158.302C229.059 158.515 229.592 158.602 230.121 158.554C230.651 158.507 231.159 158.326 231.601 158.029C232.042 157.733 232.401 157.33 232.646 156.857C232.89 156.384 233.012 155.858 232.999 155.326V151L193 151.019Z" fill="#FFE259"/>
<path d="M137 136V150.318C136.997 151.052 137.089 151.779 137.268 152.454C137.448 153.128 137.712 153.736 138.045 154.238C138.377 154.741 138.77 155.128 139.199 155.375C139.629 155.622 140.085 155.723 140.54 155.673C142.165 155.461 143.872 154.34 144.544 150.894C145.962 143.558 150.519 145.387 150.375 150.207C150.23 155.027 154.504 158.169 156.651 154.188C158.797 150.207 158.646 142.932 162.776 145.993C166.906 149.055 165.619 155.249 171.174 152.268C176.728 149.287 174.161 140.143 177.293 144.7C178.969 147.155 180.525 149.681 182.351 150.965C182.971 151.386 183.646 151.553 184.316 151.451C184.986 151.349 185.629 150.981 186.189 150.38C186.749 149.78 187.207 148.965 187.523 148.009C187.839 147.052 188.003 145.985 188 144.902V136.04L137 136Z" fill="#FFE259"/>
</svg>
