<svg width="100%" height="100%" viewBox="0 0 220 194" fill="none" xmlns="http://www.w3.org/2000/svg">
<path d="M58.8052 60.8496C58.8052 60.8496 47.2497 59.2323 44.928 69.382C42.6063 79.5317 42.2746 93.599 32.9878 96.4153C23.701 99.2315 18.56 79.685 18.56 79.685C18.56 79.685 16.4042 74.2059 14.0825 73.46C11.7607 72.7141 10.1024 78.1166 14.0825 81.4278C14.0825 81.4278 17.4323 106.349 35.2431 105.477C53.054 104.606 58.8052 78.9322 58.8052 60.8496Z" fill="#F4A28C"/>
<path opacity="0.08" d="M58.8052 60.8496C58.8052 60.8496 47.2497 59.2323 44.928 69.382C42.6063 79.5317 42.2746 93.599 32.9878 96.4153C23.701 99.2315 18.56 79.685 18.56 79.685C18.56 79.685 16.4042 74.2059 14.0825 73.46C11.7607 72.7141 10.1024 78.1166 14.0825 81.4278C14.0825 81.4278 17.4323 106.349 35.2431 105.477C53.054 104.606 58.8052 78.9322 58.8052 60.8496Z" fill="black"/>
<path opacity="0.45" d="M116.555 182.207C173.127 182.207 218.988 175.746 218.988 167.777C218.988 159.807 173.127 153.347 116.555 153.347C59.9822 153.347 14.1211 159.807 14.1211 167.777C14.1211 175.746 59.9822 182.207 116.555 182.207Z" fill="#E6E6E6"/>
<path d="M169.344 23.137H93.6367V165.825H169.344V23.137Z" fill="#C9C9C9"/>
<path d="M162.565 39.4001H99.8984V139.816H162.565V39.4001Z" fill="white"/>
<path opacity="0.12" d="M146.313 28.7136H125.086V31.969H146.313V28.7136Z" fill="black"/>
<path d="M117.397 34.3252C119.306 34.3252 120.853 32.6992 120.853 30.6934C120.853 28.6876 119.306 27.0615 117.397 27.0615C115.489 27.0615 113.941 28.6876 113.941 30.6934C113.941 32.6992 115.489 34.3252 117.397 34.3252Z" fill="white"/>
<path d="M58.8056 42.781C58.8056 42.781 51.1838 52.2127 57.2733 55.6145C66.2086 60.6057 67.2965 43.3526 67.2965 43.3526L58.8056 42.781Z" fill="#24285B"/>
<path d="M59.4022 43.7151C59.4022 43.7151 57.8101 47.2633 57.5382 49.9262C57.5116 50.1843 57.5341 50.4453 57.6043 50.6941C57.6745 50.9429 57.7911 51.1745 57.9472 51.3756C58.1034 51.5766 58.296 51.7431 58.5139 51.8653C58.7318 51.9874 58.9706 52.0629 59.2164 52.0872C60.0022 52.2213 60.8082 52.1144 61.5376 51.7793C62.2671 51.4443 62.8891 50.8953 63.3292 50.1981L65.5049 47.4097C65.8837 46.7997 66.0731 46.0812 66.0469 45.3533C66.0208 44.6254 65.7804 43.924 65.359 43.3457C63.9129 41.0732 60.2645 41.5054 59.4022 43.7151Z" fill="#F4A28C"/>
<path d="M64.6819 48.0371L65.5575 60.8497H58.8047L60.8279 51.7666L64.6819 48.0371Z" fill="#F4A28C"/>
<path d="M58.5076 46.0015L57.035 47.0401C56.9501 47.0968 56.8802 47.175 56.8317 47.2676C56.7832 47.3602 56.7578 47.4642 56.7578 47.5699C56.7578 47.6756 56.7832 47.7796 56.8317 47.8722C56.8802 47.9648 56.9501 48.0431 57.035 48.0997L58.2755 48.8874L58.5076 46.0015Z" fill="#F4A28C"/>
<path opacity="0.31" d="M60.7752 52.0246C61.5891 51.871 62.348 51.4879 62.9708 50.9163C62.9708 50.9163 63.4086 53.7046 60.1914 54.6248L60.7752 52.0246Z" fill="#CE8172"/>
<path d="M62.4805 47.8836C62.4805 47.8836 63.0045 46.4894 63.9796 46.9774C64.9547 47.4653 64.2052 49.5148 62.7657 49.1732L62.4805 47.8836Z" fill="#F4A28C"/>
<path d="M46.6137 133.801L40.9023 161.078H44.2191L55.3367 133.801H46.6137Z" fill="#F4A28C"/>
<path d="M65.1953 130.489L71.2848 161.078H74.6214L74.1173 130.273L65.1953 130.489Z" fill="#F4A28C"/>
<path d="M40.902 161.078C40.902 161.078 39.0579 163.531 36.6964 163.413C34.3349 163.294 33.9966 166.794 37.7843 166.431C38.9641 166.324 40.1334 166.115 41.2801 165.804C42.3392 165.543 43.4451 165.584 44.4841 165.922C44.6868 165.97 44.8983 165.952 45.0911 165.871C45.2839 165.79 45.4492 165.65 45.5653 165.469C46.64 164.138 43.9932 161.078 43.9932 161.078H40.902Z" fill="#24285B"/>
<path d="M74.3731 161.078C74.3731 161.078 76.2172 163.531 78.5787 163.413C80.9402 163.294 81.2852 166.794 77.4909 166.431C76.311 166.324 75.1417 166.115 73.995 165.804C72.936 165.543 71.83 165.584 70.7911 165.922C70.5884 165.97 70.3769 165.952 70.1841 165.871C69.9913 165.79 69.826 165.65 69.7098 165.469C68.6352 164.138 71.282 161.078 71.282 161.078H74.3731Z" fill="#24285B"/>
<path opacity="0.12" d="M152.781 77.9897H109.078V129.451H152.781V77.9897Z" fill="black"/>
<path opacity="0.15" d="M93.8047 65.2134V71.7103C93.8047 71.7103 97.9307 73.8016 103.722 71.2084C109.513 68.6152 112.345 74.1083 119.602 71.2084C126.859 68.3085 128.889 74.6451 136.882 72.3726C144.876 70.1 147.41 69.2705 151.748 71.7591C156.086 74.2477 165.678 72.1844 169.346 69.2078V60.8426L158.733 52.8191H102.853L93.8047 65.2134Z" fill="#2C2C3A"/>
<path d="M99.9452 39.4001L88.2969 57.657H175.142L162.711 39.4001H99.9452Z" fill="#24285B"/>
<path d="M94.4991 64.9137C97.9286 64.9137 100.701 61.6653 100.701 57.657H88.2969C88.2969 61.6653 91.0763 64.9137 94.4991 64.9137Z" fill="#24285B"/>
<path d="M106.91 64.9137C110.333 64.9137 113.112 61.6653 113.112 57.657H100.688C100.688 61.6653 103.48 64.9137 106.91 64.9137Z" fill="#FAFAFA"/>
<path d="M119.316 64.9137C122.738 64.9137 125.518 61.6653 125.518 57.657H113.113C113.113 61.6653 115.886 64.9137 119.316 64.9137Z" fill="#24285B"/>
<path d="M131.722 64.9137C135.151 64.9137 137.924 61.6653 137.924 57.657H125.52C125.52 61.6653 128.299 64.9137 131.722 64.9137Z" fill="#FAFAFA"/>
<path d="M144.131 64.9137C147.554 64.9137 150.333 61.6653 150.333 57.657H137.922C137.922 61.6653 140.701 64.9137 144.131 64.9137Z" fill="#24285B"/>
<path d="M156.534 64.9137C159.957 64.9137 162.737 61.6653 162.737 57.657H150.332C150.332 61.6653 153.092 64.9137 156.534 64.9137Z" fill="#FAFAFA"/>
<path d="M168.941 64.9137C172.37 64.9137 175.143 61.6653 175.143 57.657H162.738C162.738 61.6653 165.518 64.9137 168.941 64.9137Z" fill="#24285B"/>
<path d="M100.703 57.657L107.708 39.4001H115.801L113.114 57.657H100.703Z" fill="#FAFAFA"/>
<path d="M162.72 57.657L155.722 39.4001H147.629L150.315 57.657H162.72Z" fill="#FAFAFA"/>
<path d="M125.52 57.657L126.13 39.4001H137.181L137.924 57.657H125.52Z" fill="#FAFAFA"/>
<path d="M59.8466 38.1175C59.3025 38.3361 58.8174 38.691 58.4336 39.1515C58.0498 39.6119 57.7788 40.1639 57.6443 40.7595C57.4188 41.84 57.6045 43.1506 59.2629 44.0359C62.5796 45.8065 64.019 44.6354 63.7404 46.894C63.4618 49.1525 59.8665 56.96 67.2761 56.4372C74.6856 55.9144 72.2512 51.2369 70.9245 48.4624C69.5978 45.688 69.5447 43.3109 69.0472 41.4915C68.5895 39.8533 64.8084 36.0541 59.8466 38.1175Z" fill="#24285B"/>
<path d="M58.8067 60.8496H65.533C65.533 60.8496 65.9973 60.8496 66.7934 60.8496C81.5196 61.3445 90.0767 78.5349 82.2559 91.6611C77.9044 98.9597 72.7104 108.796 72.3655 114.665L46.2014 109.298C46.2014 109.298 52.1637 94.7595 47.3014 84.5332C47.3279 84.5471 34.3558 69.0683 58.8067 60.8496Z" fill="#35219A"/>
<path d="M60.3519 109.702C60.3121 109.388 59.4564 101.86 64.5045 98.6252L64.8494 99.2178C60.1662 102.222 61.002 109.542 61.0086 109.618L60.3519 109.702Z" fill="white"/>
<path opacity="0.08" d="M73.2013 66.4055C73.2013 66.4055 62.1832 70.8181 67.2976 89.4096C69.9509 99.0922 46.2695 98.0396 46.2695 98.0396C46.2695 98.0396 46.7007 105.471 46.4553 108.852L58.5149 109.549L73.2013 110.552L73.9177 108.378L78.382 99.5453L78.7999 88.0433L75.3174 81.637L73.2013 66.4055Z" fill="black"/>
<path d="M68.7089 109.702C68.6691 109.388 67.7272 101.623 72.8946 98.688L73.1998 99.2178C68.5232 102.222 69.3524 109.542 69.3656 109.618L68.7089 109.702Z" fill="white"/>
<path d="M46.2827 108.814L73.0884 110.299L80.2459 138.831L41.5 137.381L46.2827 108.814Z" fill="#24285B"/>
<path d="M70.7513 71.5848C70.7026 70.3276 71.0312 69.0861 71.6906 68.0359C72.35 66.9856 73.3068 66.1796 74.4257 65.7319C75.5447 65.2842 76.7693 65.2174 77.9264 65.5409C79.0835 65.8644 80.1146 66.5619 80.8739 67.5347C84.6718 72.338 85.399 78.8405 85.249 85.0835C85.0301 101.814 84.1707 119.44 49.9023 99.6916L51.7464 94.4007C51.7464 94.4007 69.5441 102.975 75.899 100.493C80.5689 98.6596 73.699 85.6339 70.7513 71.5848Z" fill="#F4A28C"/>
<path d="M51.7479 94.4009C51.7479 94.4009 46.0298 91.5428 43.602 94.4009C41.1742 97.259 45.0348 99.8033 49.9038 99.6918L51.7479 94.4009Z" fill="#F4A28C"/>
<path d="M57.811 108.322L77.3199 110.295L78.096 135.299L52.418 133.738L57.811 108.322Z" fill="#FFD200"/>
<path opacity="0.08" d="M57.811 108.322L77.3199 110.295L78.096 135.299L52.418 133.738L57.811 108.322Z" fill="black"/>
<path d="M62.1018 108.754L79.9525 110.601L82.9839 135.557L57.3125 134.003L62.1018 108.754Z" fill="#FFD200"/>
<path d="M18.912 63.0225L11.0508 65.7051L15.558 80.2914L23.4192 77.6087L18.912 63.0225Z" fill="#FFD200"/>
<path d="M66.9309 111.319L66.3737 110.943C66.3737 110.88 70.1548 104.669 67.9193 99.8451C67.5661 99.2841 67.023 98.8853 66.4003 98.7297C66.1005 98.6956 65.7973 98.7296 65.5112 98.8294C65.2251 98.9292 64.9627 99.0926 64.7419 99.3083L64.125 98.9528C64.4308 98.6218 64.8038 98.3677 65.2162 98.2096C65.6286 98.0515 66.0696 97.9933 66.5064 98.0396C67.3286 98.2344 68.044 98.7632 68.4964 99.5105C70.911 104.718 67.0901 111.054 66.9309 111.319Z" fill="white"/>
<path d="M74.6782 111.793L74.121 111.417C74.1608 111.354 77.9021 105.143 75.6732 100.319C75.3165 99.7586 74.7716 99.3603 74.1475 99.2037C73.8061 99.1674 73.4612 99.2111 73.1378 99.3316C72.8143 99.4521 72.5203 99.6465 72.2769 99.9008L71.8789 99.4198C72.184 99.0902 72.5561 98.8374 72.9674 98.6805C73.3787 98.5236 73.8184 98.4665 74.2537 98.5136C74.6617 98.6075 75.0479 98.786 75.3896 99.0385C75.7312 99.2911 76.0216 99.6126 76.2437 99.9844C78.6649 105.178 74.8175 111.521 74.6782 111.793Z" fill="white"/>
<path opacity="0.55" d="M190.073 139.823H169.344V151.095H190.073V139.823Z" fill="#E6E6E6"/>
<path d="M200.189 151.095H169.344V165.825H200.189V151.095Z" fill="#E6E6E6"/>
<g clip-path="url(#clip0_403_4172)">
<path opacity="0.45" d="M126.626 124.011C145.639 124.011 161.053 122.921 161.053 121.576C161.053 120.231 145.639 119.141 126.626 119.141C107.613 119.141 92.1992 120.231 92.1992 121.576C92.1992 122.921 107.613 124.011 126.626 124.011Z" fill="#E6E6E6"/>
<path d="M145.927 98.8013H136.836V121.619H145.927V98.8013Z" fill="#4D37BD"/>
<path d="M137.127 98.8013H130.148V121.619H137.127V98.8013Z" fill="#4D37BD"/>
<path d="M123.471 109.378C123.471 109.378 121.634 105.291 125.071 103.083L125.767 104.256C125.767 104.256 123.748 104.632 124.212 109.378H123.471Z" fill="#6875FD"/>
<path opacity="0.08" d="M123.471 109.378C123.471 109.378 121.634 105.291 125.071 103.083L125.767 104.256C125.767 104.256 123.748 104.632 124.212 109.378H123.471Z" fill="black"/>
<path opacity="0.08" d="M118.212 104.216L116.585 104.032C116.585 104.032 115.9 106.701 117.551 107.499C117.551 107.499 114.337 109.542 115.18 113.171C116.023 116.799 116.183 120.266 118.337 121.094C118.637 120.787 118.905 120.454 119.137 120.099C119.593 119.431 119.937 107.776 119.937 107.776L120.089 104.398L118.212 104.216Z" fill="black"/>
<path d="M122.413 121.482C123.273 121.168 124.22 121.136 125.101 121.391L125.418 121.482C125.858 121.61 126.325 121.625 126.772 121.525C127.22 121.425 127.631 121.213 127.962 120.912C129.536 119.479 132.072 116.506 131.797 112.416C131.485 107.786 128.432 107.299 125.981 108.248C124.79 108.709 123.454 108.703 122.266 108.233C121.085 107.764 119.552 107.476 118.226 108.281C115.826 109.737 115.714 117.559 120.234 121.149C120.533 121.383 120.893 121.538 121.276 121.596C121.659 121.655 122.052 121.616 122.413 121.482Z" fill="#FFD200"/>
<path opacity="0.43" d="M129.962 110.923C130.342 112.814 130.142 114.769 129.386 116.557C129.335 116.672 129.246 116.769 129.132 116.832C129.018 116.895 128.886 116.921 128.755 116.906C128.624 116.892 128.501 116.837 128.406 116.75C128.311 116.663 128.249 116.549 128.229 116.426L127.389 111.349C127.355 111.155 127.37 110.955 127.434 110.768C127.498 110.58 127.609 110.41 127.756 110.271C127.904 110.132 128.085 110.028 128.283 109.969C128.482 109.909 128.693 109.895 128.898 109.929H128.951C129.205 109.981 129.436 110.103 129.616 110.28C129.796 110.457 129.917 110.681 129.962 110.923Z" fill="white"/>
<path d="M123.193 105.43C123.193 105.43 122.564 100.916 117.551 102.624C117.551 102.624 118.367 107.176 123.193 105.43Z" fill="#6875FD"/>
<path opacity="0.46" d="M123.193 105.43C123.193 105.43 122.564 100.916 117.551 102.624C117.551 102.624 118.367 107.176 123.193 105.43Z" fill="white"/>
<path d="M130.148 98.8013L134.007 92.8416L137.124 98.8013H130.148Z" fill="#35219A"/>
<path d="M134.008 92.8416H143.232L145.928 98.8013H136.837L134.008 92.8416Z" fill="#4D37BD"/>
<path d="M143.232 90.6462H134.008V92.8414H143.232V90.6462Z" fill="#9F93DB"/>
<path opacity="0.46" d="M143.232 90.6462H134.008V92.8414H143.232V90.6462Z" fill="white"/>
<path opacity="0.2" d="M130.148 98.8013L134.007 92.8416L137.124 98.8013H130.148Z" fill="#4D37BD"/>
<path opacity="0.46" d="M141.377 112.439C142.901 112.439 144.137 110.554 144.137 108.228C144.137 105.902 142.901 104.017 141.377 104.017C139.853 104.017 138.617 105.902 138.617 108.228C138.617 110.554 139.853 112.439 141.377 112.439Z" fill="white"/>
</g>
<defs>
<clipPath id="clip0_403_4172">
<rect width="39.6" height="35.2216" fill="white" transform="translate(111.102 87.2849)"/>
</clipPath>
</defs>
</svg>
