<svg width="34" height="35" viewBox="0 0 34 35" fill="none" xmlns="http://www.w3.org/2000/svg">
<g opacity="0.8">
<circle cx="17" cy="18" r="16" fill="#4836A2"/>
<path d="M17.0002 18C19.2094 18 21 16.2092 21 14C21 11.7909 19.2094 10 17.0002 10C14.7906 10 13 11.7909 13 14C13 16.2091 14.7906 18 17.0002 18ZM17.0002 12.0322C18.0868 12.0322 18.9681 12.9131 18.9681 14C18.9681 15.0869 18.0868 15.9678 17.0002 15.9678C15.9132 15.9678 15.0319 15.0869 15.0319 14C15.0319 12.9131 15.9132 12.0322 17.0002 12.0322Z" fill="#EEEEEE"/>
<path d="M19.4643 19.3141C18.5187 20.1042 17.0002 20.1042 17.0002 20.1042C17.0002 20.1042 15.4813 20.1042 14.5358 19.3141C13.8362 18.7297 13.3099 19.0663 13.1199 19.4714C12.7886 20.177 13.1628 20.5182 14.0077 21.0931C14.7294 21.5844 15.7207 21.768 16.3609 21.8365L15.8263 22.4032C15.0735 23.2012 14.347 23.9718 13.8429 24.5064C13.5415 24.8259 13.5415 25.3444 13.8429 25.6639L13.9339 25.7602C14.2354 26.0799 14.7241 26.0799 15.0254 25.7602L17.0091 23.6571C17.7619 24.4553 18.4884 25.2258 18.9925 25.7602C19.2939 26.0799 19.7826 26.0799 20.0842 25.7602L20.1751 25.6639C20.4764 25.344 20.4764 24.8259 20.1751 24.5064L18.1913 22.4029L17.6552 21.8345C18.296 21.7647 19.2769 21.5803 19.9923 21.0931C20.837 20.5181 21.2115 20.1769 20.8801 19.4713C20.6902 19.0663 20.1635 18.7297 19.4643 19.3141Z" fill="#EEEEEE"/>
</g>
</svg>
