<svg width="34" height="34" viewBox="0 0 34 34" fill="none" xmlns="http://www.w3.org/2000/svg">
<g opacity="0.8">
<path d="M17 1C8.16333 1 1 8.16333 1 17C1 25.8367 8.16333 33 17 33C25.8367 33 33 25.8367 33 17C33 8.16333 25.8367 1 17 1ZM23.1533 19.0517C23.1533 19.0517 24.5683 20.4483 24.9167 21.0967C24.9267 21.11 24.9317 21.1233 24.935 21.13C25.0767 21.3683 25.11 21.5533 25.04 21.6917C24.9233 21.9217 24.5233 22.035 24.3867 22.045H21.8867C21.7133 22.045 21.35 22 20.91 21.6967C20.5717 21.46 20.2383 21.0717 19.9133 20.6933C19.4283 20.13 19.0083 19.6433 18.585 19.6433C18.5312 19.6432 18.4778 19.6517 18.4267 19.6683C18.1067 19.7717 17.6967 20.2283 17.6967 21.445C17.6967 21.825 17.3967 22.0433 17.185 22.0433H16.04C15.65 22.0433 13.6183 21.9067 11.8183 20.0083C9.615 17.6833 7.63167 13.02 7.615 12.9767C7.49 12.675 7.74833 12.5133 8.03 12.5133H10.555C10.8917 12.5133 11.0017 12.7183 11.0783 12.9C11.1683 13.1117 11.4983 13.9533 12.04 14.9C12.9183 16.4433 13.4567 17.07 13.8883 17.07C13.9693 17.069 14.0488 17.0485 14.12 17.01C14.6833 16.6967 14.5783 14.6883 14.5533 14.2717C14.5533 14.1933 14.5517 13.3733 14.2633 12.98C14.0567 12.695 13.705 12.5867 13.4917 12.5467C13.578 12.4275 13.6918 12.3309 13.8233 12.265C14.21 12.0717 14.9067 12.0433 15.5983 12.0433H15.9833C16.7333 12.0533 16.9267 12.1017 17.1983 12.17C17.7483 12.3017 17.76 12.6567 17.7117 13.8717C17.6967 14.2167 17.6817 14.6067 17.6817 15.0667C17.6817 15.1667 17.6767 15.2733 17.6767 15.3867C17.66 16.005 17.64 16.7067 18.0767 16.995C18.1336 17.0307 18.1994 17.0498 18.2667 17.05C18.4183 17.05 18.875 17.05 20.1117 14.9283C20.4931 14.2454 20.8245 13.5358 21.1033 12.805C21.1283 12.7617 21.2017 12.6283 21.2883 12.5767C21.3523 12.5441 21.4232 12.5275 21.495 12.5283H24.4633C24.7867 12.5283 25.0083 12.5767 25.05 12.7017C25.1233 12.9 25.0367 13.505 23.6817 15.34L23.0767 16.1383C21.8483 17.7483 21.8483 17.83 23.1533 19.0517Z" fill="#4836A2"/>
</g>
</svg>
