<svg width="8" height="8" viewBox="0 0 8 8" fill="none" xmlns="http://www.w3.org/2000/svg">
<path d="M4.54805 4.00002L7.38305 1.16502C7.44676 1.09063 7.48005 0.994929 7.47627 0.897055C7.47249 0.799181 7.43192 0.706338 7.36266 0.637079C7.2934 0.56782 7.20056 0.527246 7.10268 0.523466C7.00481 0.519685 6.90911 0.552977 6.83472 0.616687L3.99972 3.45169L1.16472 0.612798C1.09032 0.549088 0.994627 0.515797 0.896753 0.519577C0.798879 0.523358 0.706036 0.563931 0.636777 0.63319C0.567518 0.702449 0.526944 0.795292 0.523164 0.893166C0.519384 0.99104 0.552675 1.08674 0.616385 1.16113L3.45139 4.00002L0.612496 6.83502C0.571787 6.86988 0.538723 6.91279 0.515381 6.96103C0.492038 7.00928 0.478921 7.06183 0.476852 7.11539C0.474784 7.16895 0.483808 7.22235 0.503359 7.27226C0.522911 7.32216 0.552567 7.36749 0.590466 7.40538C0.628365 7.44328 0.673689 7.47294 0.723593 7.49249C0.773497 7.51204 0.826904 7.52107 0.880462 7.519C0.934019 7.51693 0.98657 7.50381 1.03482 7.48047C1.08307 7.45713 1.12597 7.42406 1.16083 7.38335L3.99972 4.54835L6.83472 7.38335C6.90911 7.44706 7.00481 7.48035 7.10268 7.47657C7.20056 7.47279 7.2934 7.43222 7.36266 7.36296C7.43192 7.2937 7.47249 7.20086 7.47627 7.10299C7.48005 7.00511 7.44676 6.90942 7.38305 6.83502L4.54805 4.00002Z" fill="#D1D1D1"/>
</svg>
