<svg xmlns="http://www.w3.org/2000/svg" viewBox="0 0 1920 1080">
    <defs><style>.cls-1{fill:#003c96;}.cls-2{fill:#00be64;}.cls-3{fill:#ffb900;}.cls-4{fill:#fff;}</style></defs><g id="Background"><rect class="cls-1" width="1920" height="1080"/></g><g id="Graphics"><path class="cls-2" d="M826,513.3A145.8,145.8,0,0,0,960.14,602,145.8,145.8,0,0,0,826,513.3Z"/><circle class="cls-3" cx="960.14" cy="419.79" r="109.32"/><path class="cls-2" d="M960.15,602a109.32,109.32,0,0,0,99.55-64.12A109.32,109.32,0,0,0,960.15,602Z"/><circle class="cls-1" cx="960.14" cy="419.79" r="54.66"/><path class="cls-4" d="M980.1,646.26H1003v88.61H980.1V700.36H940.18v34.51H917.32V646.26h22.86v32.65H980.1Zm33.63,22h28.47v66.64h22.86V668.23h28.11v-22h-79.44ZM1204,715.59v18.84c-3.89,2-8.76,2.92-14.45,2.92-11.87,0-17.85-5.17-20.25-13.49l-.38.55c-6.91,8.69-16.48,12.94-28.89,12.94-11.87,0-22-4.43-30.48-13.47-8.33-9-12.59-20.2-12.59-33.32s4.26-24.1,12.59-33.14c8.5-9,18.61-13.65,30.48-13.65s21.13,3.9,28,11.84v-9.35h22.86v62.68c0,5.35,2.44,8.11,7.31,8.11A11.08,11.08,0,0,0,1204,715.59Zm-35.08-25c0-7.26-2.31-13.29-7.09-17.9-4.61-4.78-10.46-7.09-17.55-7.09s-12.93,2.31-17.54,7.09c-4.61,4.61-6.91,10.64-6.91,17.9s2.3,13.3,6.91,18.08q6.92,6.92,17.54,6.91t17.55-6.91C1166.64,703.86,1169,697.83,1169,690.56Zm-440-44.3-.68,33.29c-.17,13.47-.65,20.13-2.6,27.76-1.79,7.31-5.2,9.38-10.56,9.38a13.87,13.87,0,0,1-4.7-.65v18.83c1.78,1,4.7,1.46,8.6,1.46,16.08-.48,23.87-8.07,27.77-21.71,2.76-9.74,3.24-17.21,3.73-28.42l.51-18h28.39v66.64h22.87V646.26Zm110.1,50.28c2.46,15.13,14.46,20.08,26.63,20.08,8,0,16.5-3.15,21.7-7.87l14.11,14.19c-8.43,9.32-20.14,14.41-36.17,14.41-22.43,0-49.49-13.24-49.49-46.79s26.06-46.79,48.18-46.79c28,0,39.58,13.15,39.58,27.9C903.62,695.77,873,706.9,839.08,696.54Zm39.72-22.26c0-6.88-6.8-9.95-14.42-9.95-11.64,0-21.72,4.92-24.8,17.56C863.3,688.74,878.8,683.63,878.8,674.28Z"/></g></svg>