<?xml version="1.0" encoding="UTF-8"?>
<svg width="494px" height="428px" viewBox="0 0 494 428" version="1.1" xmlns="http://www.w3.org/2000/svg" xmlns:xlink="http://www.w3.org/1999/xlink">
    <title>Untitled</title>
    <g id="Page-1" stroke="none" stroke-width="1" fill="none" fill-rule="evenodd">
        <g id="LENTA_LOGO_VER_COL_BLU_RGB" transform="translate(-710.000000, -310.000000)">
            <g id="Background"></g>
            <g id="Graphics" transform="translate(710.000000, 310.000000)" fill-rule="nonzero">
                <path d="M116,203.3 C138.891249,257.081909 191.689141,291.994486 250.14,292 C227.248751,238.218091 174.450859,203.305514 116,203.3 Z" id="Path" fill="#00BE64"></path>
                <circle id="Oval" fill="#FFB900" cx="250.14" cy="109.79" r="109.32"></circle>
                <path d="M250.15,292 C293.03815,292.00469 331.967249,266.930518 349.7,227.88 C306.81185,227.87531 267.882751,252.949482 250.15,292 L250.15,292 Z" id="Path" fill="#00BE64"></path>
                <circle id="Oval" fill="#003C96" cx="250.14" cy="109.79" r="54.66"></circle>
                <path d="M270.1,336.26 L293,336.26 L293,424.87 L270.1,424.87 L270.1,390.36 L230.18,390.36 L230.18,424.87 L207.32,424.87 L207.32,336.26 L230.18,336.26 L230.18,368.91 L270.1,368.91 L270.1,336.26 Z M303.73,358.26 L332.2,358.26 L332.2,424.9 L355.06,424.9 L355.06,358.23 L383.17,358.23 L383.17,336.23 L303.73,336.23 L303.73,358.26 Z M494,405.59 L494,424.43 C490.11,426.43 485.24,427.35 479.55,427.35 C467.68,427.35 461.7,422.18 459.3,413.86 L458.92,414.41 C452.01,423.1 442.44,427.35 430.03,427.35 C418.16,427.35 408.03,422.92 399.55,413.88 C391.22,404.88 386.96,393.68 386.96,380.56 C386.96,367.44 391.22,356.46 399.55,347.42 C408.05,338.42 418.16,333.77 430.03,333.77 C441.9,333.77 451.16,337.67 458.03,345.61 L458.03,336.26 L480.89,336.26 L480.89,398.94 C480.89,404.29 483.33,407.05 488.2,407.05 C490.230615,407.104202 492.237053,406.599133 494,405.59 L494,405.59 Z M458.92,380.59 C458.92,373.33 456.61,367.3 451.83,362.69 C447.22,357.91 441.37,355.6 434.28,355.6 C427.19,355.6 421.35,357.91 416.74,362.69 C412.13,367.3 409.83,373.33 409.83,380.59 C409.83,387.85 412.13,393.89 416.74,398.67 C421.353333,403.283333 427.2,405.586667 434.28,405.580014 C441.36,405.573333 447.21,403.27 451.83,398.67 C456.64,393.86 459,387.83 459,380.56 L458.92,380.59 Z M18.92,336.29 L18.24,369.58 C18.07,383.05 17.59,389.71 15.64,397.34 C13.85,404.65 10.44,406.72 5.08,406.72 C3.48762815,406.774898 1.89770302,406.555015 0.38,406.07 L0.38,424.9 C2.16,425.9 5.08,426.36 8.98,426.36 C25.06,425.88 32.85,418.29 36.75,404.65 C39.51,394.91 39.99,387.44 40.48,376.23 L40.99,358.23 L69.38,358.23 L69.38,424.87 L92.25,424.87 L92.25,336.26 L18.92,336.29 Z M129.02,386.57 C131.48,401.7 143.48,406.65 155.65,406.65 C163.65,406.65 172.15,403.5 177.35,398.78 L191.46,412.97 C183.03,422.29 171.32,427.38 155.29,427.38 C132.86,427.38 105.8,414.14 105.8,380.59 C105.8,347.04 131.86,333.8 153.98,333.8 C181.98,333.8 193.560088,346.95 193.560088,361.7 C193.62,385.77 163,396.9 129.08,386.54 L129.02,386.57 Z M168.74,364.31 C168.74,357.43 161.94,354.36 154.32,354.36 C142.68,354.36 132.6,359.28 129.52,371.92 C153.3,378.74 168.8,373.63 168.8,364.28 L168.74,364.31 Z" id="Shape" fill="#FFFFFF"></path>
            </g>
        </g>
    </g>
</svg>