<svg width="12" height="12" viewBox="0 0 12 12" fill="none" xmlns="http://www.w3.org/2000/svg">
<path d="M4.83464 9.50002C5.87004 9.49981 6.87561 9.15319 7.69122 8.51535L10.2556 11.0797L11.0804 10.2549L8.51605 7.69052C9.15422 6.87482 9.50105 5.86903 9.5013 4.83335C9.5013 2.26027 7.40772 0.166687 4.83464 0.166687C2.26155 0.166687 0.167969 2.26027 0.167969 4.83335C0.167969 7.40644 2.26155 9.50002 4.83464 9.50002ZM4.83464 1.33335C6.76489 1.33335 8.33464 2.9031 8.33464 4.83335C8.33464 6.7636 6.76489 8.33335 4.83464 8.33335C2.90439 8.33335 1.33464 6.7636 1.33464 4.83335C1.33464 2.9031 2.90439 1.33335 4.83464 1.33335Z" fill="#00AB34"/>
</svg>
