<svg xmlns="http://www.w3.org/2000/svg" id="online_shopping" width="200" height="190" viewBox="0 0 200 190" fill="none">
    <style>
        #online_shopping #face {
        transform-origin: 58px 56px;
        transform: rotate(0deg);
        transition-property: transform;
        transition-duration: 150ms;
        transition-timing-function: linear;
        }
        #online_shopping:hover #face {
        transform: rotate(-11deg);
        }
    </style>
    <g>
        <path d="M53.4595 68.9827C53.4595 68.9827 42.9545 67.5133 40.8439 76.7347C38.7332 85.956 38.4317 98.7367 29.9892 101.295C21.5466 103.854 16.873 86.0953 16.873 86.0953C16.873 86.0953 14.9131 81.1173 12.8025 80.4397C10.6919 79.762 9.18425 84.6703 12.8025 87.6787C12.8025 87.6787 15.8478 110.32 32.0395 109.529C48.2311 108.737 53.4595 85.4113 53.4595 68.9827Z" fill="#F4A28C"/>
        <path opacity="0.08" d="M53.4595 68.9827C53.4595 68.9827 42.9545 67.5133 40.8439 76.7347C38.7332 85.956 38.4317 98.7367 29.9892 101.295C21.5466 103.854 16.873 86.0953 16.873 86.0953C16.873 86.0953 14.9131 81.1173 12.8025 80.4397C10.6919 79.762 9.18425 84.6703 12.8025 87.6787C12.8025 87.6787 15.8478 110.32 32.0395 109.529C48.2311 108.737 53.4595 85.4113 53.4595 68.9827Z" fill="black"/>
        <path opacity="0.45" d="M105.96 179.24C157.39 179.24 199.082 173.37 199.082 166.13C199.082 158.889 157.39 153.02 105.96 153.02C54.5305 153.02 12.8386 158.889 12.8386 166.13C12.8386 173.37 54.5305 179.24 105.96 179.24Z" fill="#E6E6E6"/>
        <path d="M153.95 34.7193H85.1251V164.356H153.95V34.7193Z" fill="#C9C9C9"/>
        <path d="M147.787 49.495H90.8179V140.727H147.787V49.495Z" fill="white"/>
        <path opacity="0.12" d="M133.013 39.786H113.715V42.7437H133.013V39.786Z" fill="black"/>
        <path d="M106.726 44.8844C108.461 44.8844 109.868 43.4071 109.868 41.5847C109.868 39.7623 108.461 38.285 106.726 38.285C104.991 38.285 103.584 39.7623 103.584 41.5847C103.584 43.4071 104.991 44.8844 106.726 44.8844Z" fill="white"/>
        <path d="M53.4594 52.5667C53.4594 52.5667 46.5305 61.1356 52.0664 64.2263C60.1894 68.761 61.1784 53.086 61.1784 53.086L53.4594 52.5667Z" fill="#24285B"/>
        <path d="M58.8024 57.342L59.5984 68.9826H53.4595L55.2987 60.7303L58.8024 57.342Z" fill="#F4A28C"/>
        <path opacity="0.31" d="M55.2505 60.9647C55.9905 60.8252 56.6804 60.4771 57.2466 59.9577C57.2466 59.9577 57.6446 62.491 54.7198 63.327L55.2505 60.9647Z" fill="#CE8172"/>
        <path d="M42.3755 135.261L37.1833 160.043H40.1986L50.3055 135.261H42.3755Z" fill="#F4A28C"/>
        <path d="M59.2668 132.253L64.8028 160.043H67.836L67.3777 132.056L59.2668 132.253Z" fill="#F4A28C"/>
        <path d="M37.1834 160.043C37.1834 160.043 35.507 162.273 33.3602 162.165C31.2133 162.057 30.9058 165.237 34.3491 164.907C35.4217 164.81 36.4847 164.62 37.5272 164.337C38.4899 164.101 39.4954 164.138 40.4399 164.445C40.6241 164.488 40.8164 164.472 40.9917 164.398C41.167 164.325 41.3172 164.198 41.4228 164.033C42.3997 162.824 39.9936 160.043 39.9936 160.043H37.1834Z" fill="#24285B"/>
        <path d="M67.6129 160.043C67.6129 160.043 69.2893 162.273 71.4362 162.165C73.583 162.057 73.8966 165.237 70.4472 164.907C69.3746 164.81 68.3116 164.62 67.2691 164.337C66.3064 164.101 65.301 164.138 64.3565 164.445C64.1722 164.488 63.9799 164.472 63.8046 164.398C63.6294 164.325 63.4791 164.198 63.3735 164.033C62.3966 162.824 64.8027 160.043 64.8027 160.043H67.6129Z" fill="#24285B"/>
        <path opacity="0.12" d="M138.892 84.555H99.1621V131.309H138.892V84.555Z" fill="black"/>
        <path opacity="0.15" d="M85.2759 72.9474V78.85C85.2759 78.85 89.0268 80.75 94.2913 78.394C99.5559 76.038 102.131 81.0287 108.728 78.394C115.325 75.7594 117.171 81.5164 124.437 79.4517C131.704 77.387 134.008 76.6334 137.951 78.8944C141.895 81.1554 150.615 79.2807 153.95 76.5764V68.9764L144.301 61.6867H93.5014L85.2759 72.9474Z" fill="#2C2C3A"/>
        <path d="M90.8601 49.495L80.2708 66.082H159.221L147.92 49.495H90.8601Z" fill="#24285B"/>
        <path d="M85.9092 72.675C89.0269 72.675 91.5476 69.7237 91.5476 66.082H80.2708C80.2708 69.7237 82.7975 72.675 85.9092 72.675Z" fill="#24285B"/>
        <path d="M97.1919 72.675C100.304 72.675 102.83 69.7237 102.83 66.082H91.5354C91.5354 69.7237 94.0742 72.675 97.1919 72.675Z" fill="#FAFAFA"/>
        <path d="M108.469 72.675C111.581 72.675 114.107 69.7237 114.107 66.082H102.83C102.83 69.7237 105.351 72.675 108.469 72.675Z" fill="#24285B"/>
        <path d="M119.746 72.675C122.863 72.675 125.384 69.7237 125.384 66.082H114.107C114.107 69.7237 116.634 72.675 119.746 72.675Z" fill="#FAFAFA"/>
        <path d="M131.029 72.675C134.14 72.675 136.667 69.7237 136.667 66.082H125.384C125.384 69.7237 127.911 72.675 131.029 72.675Z" fill="#24285B"/>
        <path d="M142.305 72.675C145.417 72.675 147.944 69.7237 147.944 66.082H136.667C136.667 69.7237 139.176 72.675 142.305 72.675Z" fill="#FAFAFA"/>
        <path d="M153.582 72.675C156.7 72.675 159.221 69.7237 159.221 66.082H147.944C147.944 69.7237 150.471 72.675 153.582 72.675Z" fill="#24285B"/>
        <path d="M91.5476 66.082L97.9157 49.495H105.273L102.83 66.082H91.5476Z" fill="#FAFAFA"/>
        <path d="M147.926 66.082L141.564 49.495H134.207L136.649 66.082H147.926Z" fill="#FAFAFA"/>
        <path d="M114.107 66.082L114.662 49.495H124.709L125.384 66.082H114.107Z" fill="#FAFAFA"/>
        <g id="face">
            <path d="M54.0022 53.4153C54.0022 53.4153 52.5549 56.639 52.3077 59.0584C52.2835 59.2928 52.304 59.5299 52.3678 59.7559C52.4316 59.982 52.5376 60.1925 52.6796 60.3751C52.8215 60.5578 52.9966 60.709 53.1947 60.82C53.3928 60.931 53.6099 60.9996 53.8334 61.0217C54.5478 61.1435 55.2804 61.0464 55.9436 60.742C56.6067 60.4375 57.1722 59.9387 57.5722 59.3054L59.5502 56.772C59.8945 56.2178 60.0667 55.565 60.0429 54.9037C60.0192 54.2424 59.8007 53.6051 59.4175 53.0797C58.1029 51.015 54.7862 51.4077 54.0022 53.4153Z" fill="#F4A28C"/>
            <path d="M53.1882 55.4927L51.8494 56.4363C51.7722 56.4878 51.7086 56.5589 51.6646 56.643C51.6205 56.7272 51.5974 56.8216 51.5974 56.9177C51.5974 57.0137 51.6205 57.1082 51.6646 57.1923C51.7086 57.2765 51.7722 57.3476 51.8494 57.399L52.9771 58.1147L53.1882 55.4927Z" fill="#F4A28C"/>
            <path d="M56.8003 57.2026C56.8003 57.2026 57.2767 55.9359 58.1632 56.3793C59.0496 56.8226 58.3682 58.6846 57.0596 58.3743L56.8003 57.2026Z" fill="#F4A28C"/>
            <path d="M54.4062 48.3297C53.9115 48.5282 53.4705 48.8507 53.1216 49.269C52.7727 49.6874 52.5264 50.1889 52.4041 50.73C52.199 51.7117 52.3679 52.9023 53.8755 53.7067C56.8907 55.3153 58.1993 54.2513 57.946 56.3033C57.6927 58.3553 54.4243 65.4487 61.1602 64.9737C67.8962 64.4987 65.683 60.249 64.4769 57.7283C63.2709 55.2077 63.2226 53.048 62.7703 51.395C62.3542 49.9067 58.9169 46.455 54.4062 48.3297Z" fill="#24285B"/>
        </g>
        <path d="M53.4595 68.9827H59.5743C59.5743 68.9827 59.9964 68.9827 60.7201 68.9827C74.1076 69.4323 81.8868 85.0503 74.777 96.976C70.821 103.607 66.0992 112.543 65.7856 117.876L42.0001 113C42.0001 113 47.4204 99.791 43.0001 90.5C43.0242 90.5127 31.2314 76.4497 53.4595 68.9827Z" fill="#35219A"/>
        <path d="M54.8646 113.367C54.8284 113.082 54.0505 106.242 58.6396 103.303L58.9532 103.841C54.6957 106.571 55.4555 113.221 55.4616 113.291L54.8646 113.367Z" fill="white"/>
        <path opacity="0.08" d="M66.5455 74.0303C66.5455 74.0303 56.529 78.0393 61.1784 94.9303C63.5906 103.727 42.062 102.771 42.062 102.771C42.062 102.771 42.454 109.522 42.2309 112.594L53.1941 113.227L66.5455 114.139L67.1967 112.163L71.2552 104.139L71.6351 93.689L68.4692 87.8687L66.5455 74.0303Z" fill="black"/>
        <path d="M62.4629 113.367C62.4267 113.082 61.5704 106.026 66.2681 103.36L66.5455 103.841C62.294 106.571 63.0478 113.221 63.0599 113.291L62.4629 113.367Z" fill="white"/>
        <path d="M42.0762 112.56L66.445 113.909L72.9518 139.831L37.7282 138.514L42.0762 112.56Z" fill="#24285B"/>
        <path d="M64.3203 78.736C64.2761 77.5938 64.5748 76.4658 65.1742 75.5116C65.7736 74.5574 66.6434 73.8252 67.6607 73.4184C68.678 73.0116 69.7912 72.9509 70.8431 73.2448C71.895 73.5388 72.8324 74.1724 73.5227 75.0563C76.9753 79.4203 77.6364 85.328 77.5 91C77.301 106.2 76.5198 122.214 45.3667 104.272L47.0432 99.465C47.0432 99.465 63.2229 107.255 69 105C73.2454 103.334 67 91.5 64.3203 78.736Z" fill="#F4A28C"/>
        <path d="M47.0432 99.465C47.0432 99.465 41.845 96.8683 39.6379 99.465C37.4308 102.062 40.9405 104.373 45.3668 104.272L47.0432 99.465Z" fill="#F4A28C"/>
        <path d="M52.5549 112.113L70.2904 113.905L70.9959 136.623L47.6522 135.204L52.5549 112.113Z" fill="#FFD200"/>
        <path opacity="0.08" d="M52.5549 112.113L70.2904 113.905L70.9959 136.623L47.6522 135.204L52.5549 112.113Z" fill="black"/>
        <path d="M56.4566 112.505L72.6844 114.184L75.4403 136.857L52.1027 135.445L56.4566 112.505Z" fill="#FFD200"/>
        <path d="M17.1932 70.9566L10.0466 73.3939L14.1441 86.646L21.2907 84.2087L17.1932 70.9566Z" fill="#FFD200"/>
        <path d="M60.8468 114.836L60.3402 114.494C60.3402 114.437 63.7775 108.794 61.7453 104.411C61.4242 103.902 60.9305 103.539 60.3643 103.398C60.0918 103.367 59.8162 103.398 59.5561 103.489C59.296 103.579 59.0574 103.728 58.8567 103.924L58.2959 103.601C58.5739 103.3 58.913 103.069 59.2879 102.925C59.6628 102.782 60.0637 102.729 60.4608 102.771C61.2082 102.948 61.8586 103.428 62.2699 104.107C64.465 108.838 60.9915 114.595 60.8468 114.836Z" fill="white"/>
        <path d="M67.8903 115.267L67.3837 114.925C67.4199 114.868 70.8211 109.225 68.7948 104.842C68.4705 104.333 67.9752 103.971 67.4079 103.829C67.0974 103.796 66.7839 103.835 66.4899 103.945C66.1958 104.054 65.9285 104.231 65.7073 104.462L65.3455 104.025C65.6228 103.726 65.9611 103.496 66.335 103.353C66.7089 103.211 67.1087 103.159 67.5043 103.202C67.8753 103.287 68.2263 103.449 68.537 103.679C68.8476 103.908 69.1116 104.2 69.3135 104.538C71.5146 109.256 68.0169 115.02 67.8903 115.267Z" fill="white"/>
        <path opacity="0.55" d="M172.795 140.733H153.95V150.974H172.795V140.733Z" fill="#E6E6E6"/>
        <path d="M181.992 150.974H153.95V164.356H181.992V150.974Z" fill="#E6E6E6"/>
        <g id="health_ 1" clip-path="url(#online_shopping_clip0)">
            <path opacity="0.45" d="M115.114 126.366C132.399 126.366 146.411 125.376 146.411 124.154C146.411 122.933 132.399 121.942 115.114 121.942C97.8292 121.942 83.817 122.933 83.817 124.154C83.817 125.376 97.8292 126.366 115.114 126.366Z" fill="#E6E6E6"/>
            <path d="M132.661 103.463H124.396V124.193H132.661V103.463Z" fill="#4D37BD"/>
            <path d="M124.661 103.463H118.316V124.193H124.661V103.463Z" fill="#4D37BD"/>
            <path d="M112.246 113.073C112.246 113.073 110.576 109.359 113.701 107.353L114.333 108.419C114.333 108.419 112.498 108.761 112.92 113.073H112.246Z" fill="#6875FD"/>
            <path opacity="0.08" d="M112.246 113.073C112.246 113.073 110.576 109.359 113.701 107.353L114.333 108.419C114.333 108.419 112.498 108.761 112.92 113.073H112.246Z" fill="black"/>
            <path opacity="0.08" d="M107.465 108.382L105.987 108.215C105.987 108.215 105.364 110.641 106.864 111.365C106.864 111.365 103.943 113.222 104.709 116.518C105.475 119.815 105.621 122.965 107.579 123.716C107.852 123.438 108.095 123.136 108.307 122.813C108.721 122.206 109.034 111.617 109.034 111.617L109.172 108.548L107.465 108.382Z" fill="black"/>
            <path d="M111.284 124.069C112.065 123.784 112.926 123.755 113.727 123.987L114.016 124.069C114.415 124.186 114.84 124.199 115.247 124.108C115.653 124.017 116.027 123.825 116.328 123.551C117.759 122.249 120.064 119.549 119.815 115.833C119.531 111.626 116.755 111.184 114.527 112.046C113.444 112.464 112.23 112.459 111.15 112.032C110.076 111.606 108.682 111.344 107.478 112.076C105.296 113.398 105.194 120.505 109.303 123.767C109.575 123.98 109.901 124.12 110.25 124.173C110.598 124.226 110.955 124.191 111.284 124.069Z" fill="#FFD200"/>
            <path opacity="0.43" d="M118.147 114.476C118.492 116.194 118.31 117.971 117.623 119.595C117.577 119.7 117.496 119.787 117.392 119.845C117.289 119.902 117.168 119.926 117.049 119.912C116.93 119.899 116.819 119.849 116.732 119.77C116.646 119.691 116.589 119.588 116.571 119.475L115.807 114.863C115.776 114.686 115.79 114.505 115.849 114.335C115.907 114.164 116.007 114.01 116.141 113.883C116.276 113.757 116.44 113.663 116.62 113.609C116.801 113.555 116.993 113.542 117.179 113.573H117.228C117.458 113.62 117.669 113.731 117.832 113.892C117.996 114.053 118.105 114.256 118.147 114.476V114.476Z" fill="white"/>
            <path d="M111.994 109.485C111.994 109.485 111.422 105.384 106.864 106.936C106.864 106.936 107.606 111.072 111.994 109.485Z" fill="#6875FD"/>
            <path opacity="0.46" d="M111.994 109.485C111.994 109.485 111.422 105.384 106.864 106.936C106.864 106.936 107.606 111.072 111.994 109.485Z" fill="white"/>
            <path d="M118.316 103.463L121.824 98.0483L124.658 103.463H118.316Z" fill="#35219A"/>
            <path d="M121.824 98.0483H130.21L132.661 103.463H124.396L121.824 98.0483Z" fill="#4D37BD"/>
            <path d="M130.21 96.0539H121.824V98.0483H130.21V96.0539Z" fill="#9F93DB"/>
            <path opacity="0.46" d="M130.21 96.0539H121.824V98.0483H130.21V96.0539Z" fill="white"/>
            <path opacity="0.2" d="M118.316 103.463L121.824 98.0483L124.658 103.463H118.316Z" fill="#4D37BD"/>
            <path opacity="0.46" d="M128.525 115.853C129.911 115.853 131.034 114.14 131.034 112.027C131.034 109.914 129.911 108.201 128.525 108.201C127.139 108.201 126.016 109.914 126.016 112.027C126.016 114.14 127.139 115.853 128.525 115.853Z" fill="white"/>
        </g>
    </g>
    <defs>
        <clipPath id="online_shopping_clip0">
            <rect width="36" height="32" fill="white" transform="translate(101 93)"/>
        </clipPath>
    </defs>
</svg>