<svg width="274" height="257" viewBox="0 0 274 257" fill="none" xmlns="http://www.w3.org/2000/svg">
<path d="M168.662 77.3168C168.662 77.3168 147.738 94.7541 162.029 105.152C176.321 115.549 183.508 92.3397 183.508 92.3397L180.252 74.7637L168.662 77.3168Z" fill="#FFD200"/>
<path d="M136.461 95.7256C136.461 95.7256 149.782 98.6025 162.121 110.526C174.461 122.45 127.063 146.391 136.461 95.7256Z" fill="#35219A"/>
<path opacity="0.46" d="M162.137 110.489C174.477 122.367 127.06 146.391 136.477 95.6885C136.477 95.6885 149.797 98.5654 162.137 110.489Z" fill="white"/>
<path d="M168.662 94.1904L183.601 94.6715C183.601 94.6715 235.078 104.218 207.087 157.575C202.263 166.812 199.629 177.036 199.391 187.455H159.976L158.256 180.332C156.005 170.561 151.684 161.387 145.583 153.431C137.813 143.57 131.837 123.589 168.662 94.1904Z" fill="#35219A"/>
<path d="M111.663 57.41C111.663 57.41 113.337 65.5135 112.606 71.0638C112.534 71.6049 112.357 72.1265 112.083 72.5987C111.809 73.0709 111.444 73.4843 111.01 73.8152C110.576 74.1461 110.081 74.3881 109.553 74.5271C109.026 74.6661 108.475 74.6995 107.935 74.6253C105.16 74.2183 101.46 72.8492 100.007 68.6309L96.6865 61.8133C96.6865 61.8133 94.7717 57.4378 98.9991 53.5618C103.226 49.6858 110.886 52.4332 111.663 57.41Z" fill="#F4A28C"/>
<path d="M97.3035 63.0342L96.2305 90.0736L111.17 89.5925L105.952 70.1109L97.3035 63.0342Z" fill="#F4A28C"/>
<path d="M109.634 57.9928C107.114 58.3893 104.556 58.4949 102.012 58.3074C102.88 59.3317 103.431 60.5875 103.595 61.9203C103.759 63.2531 103.531 64.6049 102.937 65.8096C102.377 66.9868 101.424 67.9319 100.242 68.4823C99.0602 69.0327 97.7235 69.154 96.462 68.8252L95.3519 58.2796C95.1398 56.7761 95.3391 55.2432 95.9288 53.844C96.5184 52.4447 97.4763 51.2315 98.7005 50.3334C99.7553 49.5478 100.862 48.8339 102.012 48.1965C104.898 46.6147 109.579 48.1132 112.058 45.7451C112.309 45.5097 112.616 45.343 112.95 45.2613C113.284 45.1796 113.634 45.1855 113.965 45.2786C114.297 45.3716 114.598 45.5486 114.841 45.7924C115.084 46.0362 115.259 46.3385 115.351 46.6702C116.202 49.8153 116.23 54.9309 112.104 57.1973C111.329 57.5943 110.495 57.863 109.634 57.9928Z" fill="#FFD200"/>
<path d="M103.779 65.5137C103.779 65.5137 103.344 62.3593 101.004 62.8866C98.6634 63.4139 99.2646 67.9651 102.539 68.0114L103.779 65.5137Z" fill="#F4A28C"/>
<path d="M112.455 62.5625L115.109 65.4487C115.26 65.6124 115.366 65.8114 115.42 66.0272C115.473 66.243 115.471 66.4688 115.413 66.6836C115.356 66.8984 115.246 67.0953 115.093 67.2562C114.939 67.4171 114.748 67.5367 114.536 67.6041L111.465 68.5291L112.455 62.5625Z" fill="#F4A28C"/>
<path opacity="0.31" d="M107.276 74.3293C105.374 74.0834 103.586 73.2859 102.133 72.0352C102.133 72.0352 102.928 76.9287 108.904 81.1377L107.276 74.3293Z" fill="#CE8172"/>
<path d="M168.169 61.9979C168.169 61.9979 166.494 70.0829 167.244 75.6795C167.314 76.2211 167.491 76.7434 167.765 77.2162C168.038 77.6889 168.403 78.1029 168.837 78.434C169.271 78.7651 169.767 79.0069 170.295 79.1454C170.824 79.284 171.374 79.3164 171.915 79.241C174.69 78.834 178.39 77.4649 179.843 73.2466L183.145 66.3735C183.145 66.3735 185.06 61.9887 180.832 58.122C176.605 54.2552 168.946 57.0211 168.169 61.9979Z" fill="#F4A28C"/>
<path d="M182.526 67.6221L183.599 94.6615L168.66 94.1804L173.877 74.6987L182.526 67.6221Z" fill="#F4A28C"/>
<path d="M176.051 70.0457C176.051 70.0457 176.486 66.9005 178.826 67.4278C181.166 67.955 180.565 72.5063 177.29 72.5433L176.051 70.0457Z" fill="#F4A28C"/>
<path d="M167.374 67.1416L164.72 70.037C164.569 70.2007 164.463 70.3997 164.409 70.6155C164.356 70.8314 164.358 71.0571 164.416 71.2719C164.473 71.4867 164.583 71.6837 164.736 71.8445C164.89 72.0054 165.081 72.1251 165.293 72.1924L168.364 73.1175L167.374 67.1416Z" fill="#F4A28C"/>
<path opacity="0.31" d="M172.538 78.9172C174.437 78.6722 176.223 77.8744 177.672 76.623C177.672 76.623 176.886 81.5166 170.91 85.7256L172.538 78.9172Z" fill="#CE8172"/>
<path d="M169.226 49.7878C164.296 52.3502 163.787 59.1586 167.968 62.8126C169.613 64.1991 171.444 65.3481 173.407 66.226C181.622 70.0095 167.987 106.928 187.477 106.068C206.967 105.208 203.064 95.8833 196.588 86.79C190.113 77.6967 189.864 63.6636 188.346 56.2632C187.246 50.9163 175.942 46.2818 169.226 49.7878Z" fill="#FFD200"/>
<path d="M96.2321 90.0742L111.171 89.6024C111.171 89.6024 190.233 86.3092 134.121 190.905H80.96C80.96 190.905 33.8395 101.489 96.2321 90.0742Z" fill="#35219A"/>
<path opacity="0.08" d="M91.5427 110.489C91.5427 110.489 99.0168 121.941 93.8275 140.831C88.6381 159.721 86.6771 175.743 97.7218 190.904H80.9605C80.9605 190.904 72.2375 172.81 71.5623 168.703C70.887 164.596 58.5195 121.451 91.5427 110.489Z" fill="black"/>
<path d="M68.7855 103.699C59.7019 111.775 51.4229 124.8 50.2852 145.604L80.9588 152.376C85.5422 140.76 89.0022 128.732 91.2913 116.456C93.7426 103.644 78.5352 95.0222 68.7855 103.699Z" fill="#35219A"/>
<path opacity="0.46" d="M68.7855 103.699C59.7019 111.775 51.4229 124.8 50.2852 145.604L80.9588 152.376C85.5422 140.76 89.0022 128.732 91.2913 116.456C93.7426 103.644 78.5352 95.0222 68.7855 103.699Z" fill="white"/>
<path d="M53.4237 146.308C53.4237 146.308 47.3463 201.94 53.4237 224.012H63.8949C63.8949 224.012 64.6904 176.64 78.9912 151.932L53.4237 146.308Z" fill="#F4A28C"/>
<path d="M80.9421 190.904L77.6953 224.031H136.48L134.121 190.904H80.9421Z" fill="#24285B"/>
<path d="M158.994 183.402H199.612L205.236 224.031H149.809L158.994 183.402Z" fill="#24285B"/>
<path opacity="0.08" d="M138.461 131.812C138.461 131.812 130.478 130.776 130.802 137.936C131.125 145.096 140.218 158.287 132.263 163.125C124.743 167.75 100.868 178.851 105.206 197.028C105.675 198.939 106.595 200.709 107.889 202.19L113.374 208.545C115.161 210.621 116.286 213.183 116.605 215.904C116.923 218.624 116.419 221.377 115.16 223.809L115.049 224.031H138.461L143.465 195.289L145.759 156.696L138.461 131.812Z" fill="black"/>
<path opacity="0.08" d="M195.837 115.91C195.837 115.91 178.261 126.354 180.25 150.017C182.239 173.68 170.926 177.445 170.926 177.445L174.311 185.215C174.311 185.215 195.272 204.919 184.875 224.068H205.226L200.452 189.591L210.628 150.054L195.837 115.91Z" fill="black"/>
<path d="M139.625 137.936C139.625 137.936 135.12 157.195 143.806 157.362C152.492 157.528 150.281 137.936 150.281 137.936H139.625Z" fill="#F4A28C"/>
<path d="M136.312 139.194C136.312 139.194 135.387 143.033 140.882 143.403C144.088 143.624 147.305 143.624 150.511 143.403C150.511 143.403 157.144 141.211 153.49 135.18C149.836 129.148 149.595 135.91 145.424 130.786C141.252 125.661 137.496 129.546 138.458 133.274C139.42 137.002 133.972 134.199 136.312 139.194Z" fill="#FFD200"/>
<path d="M148.791 153.755L150.511 166.067C150.511 166.067 153.675 171.183 147.089 172.284C140.502 173.385 138.134 170.637 142.343 166.252L143.435 153.755H148.791Z" fill="#F4A28C"/>
<path d="M193.814 120.425C196.857 108.186 213.988 106.891 218.789 118.575C221.509 125.207 223.081 133.699 221.749 144.3C220.092 158.428 215.15 171.972 207.319 183.847C205.514 186.533 202.769 188.447 199.624 189.211C196.479 189.974 193.162 189.532 190.326 187.972L154.75 168.546L156.887 160.221L194.017 172.468C194.017 172.468 187.385 146.188 193.814 120.425Z" fill="#35219A"/>
<path opacity="0.46" d="M193.814 120.425C196.857 108.186 213.988 106.891 218.789 118.575C221.509 125.207 223.081 133.699 221.749 144.3C220.092 158.428 215.15 171.972 207.319 183.847C205.514 186.533 202.769 188.447 199.624 189.211C196.479 189.974 193.162 189.532 190.326 187.972L154.75 168.546L156.887 160.221L194.017 172.468C194.017 172.468 187.385 146.188 193.814 120.425Z" fill="white"/>
<path d="M150.51 143.403C150.51 143.403 155.136 143.468 154.59 147.64C154.044 151.812 148.734 147.64 148.734 147.64L150.51 143.403Z" fill="#F4A28C"/>
<path d="M133.019 169.185C127.626 171.683 119.532 176.585 115.601 184.911C114.477 187.303 114.085 189.974 114.475 192.587C114.865 195.201 116.02 197.642 117.793 199.601L128.413 211.367C128.413 211.367 127.284 217.214 130.531 217.704C133.778 218.194 132.76 208.898 132.76 208.898L125.083 196.687C124.779 196.21 124.585 195.671 124.515 195.109C124.445 194.548 124.501 193.978 124.678 193.441C124.855 192.904 125.149 192.413 125.539 192.003C125.929 191.593 126.405 191.275 126.933 191.072C132.316 189.018 140.392 184.069 139.476 172.987C139.407 172.259 139.166 171.558 138.774 170.941C138.381 170.324 137.848 169.809 137.218 169.437C136.588 169.066 135.879 168.85 135.149 168.806C134.419 168.762 133.689 168.892 133.019 169.185Z" fill="#F4A28C"/>
<path d="M130.515 207.111L128.359 224.031H165.147L161.373 208.591L130.515 207.111Z" fill="#24285B"/>
<path opacity="0.31" d="M143.123 157.381C143.123 157.381 145.408 157.483 148.433 154.994C148.433 154.994 148.331 159.74 142.809 160.942L143.123 157.381Z" fill="#CE8172"/>
<path d="M150.51 166.067C150.51 166.067 164.506 165.789 165.782 179.554C167.059 193.319 161.37 208.592 161.37 208.592L130.511 207.112C130.511 207.112 115.84 170.045 142.342 166.252L150.51 166.067Z" fill="#35219A"/>
<path opacity="0.08" d="M151.696 173.689C151.696 173.689 150.502 180.563 153.055 186.64C155.282 192.179 155.726 198.275 154.323 204.078L153.296 208.62L149.809 224.059H165.136L162.62 214.808L164.1 198.897C164.1 198.897 165.747 191.737 165.562 190.442C165.377 189.147 151.696 173.689 151.696 173.689Z" fill="black"/>
<path d="M158.273 168.046C163.018 170.248 169.863 174.337 174.109 180.923C175.922 183.759 176.751 187.114 176.466 190.468C176.182 193.822 174.801 196.989 172.537 199.48L162.842 210.21C162.842 210.21 163.98 216.057 160.733 216.547C157.487 217.037 158.458 207.778 158.458 207.778L165.719 196.251C166.068 195.697 166.291 195.073 166.374 194.424C166.456 193.774 166.396 193.114 166.196 192.491C165.997 191.867 165.664 191.294 165.221 190.812C164.777 190.331 164.234 189.952 163.629 189.702C158.273 187.51 150.845 182.524 151.724 171.867C151.785 171.125 152.024 170.409 152.42 169.779C152.817 169.15 153.36 168.625 154.003 168.25C154.646 167.875 155.369 167.661 156.113 167.625C156.856 167.59 157.597 167.734 158.273 168.046Z" fill="#F4A28C"/>
<path d="M156.368 162.034C156.368 162.034 151.798 158.093 148.737 160.045C145.675 161.997 145.869 165.382 150.513 166.067L155.138 166.751L156.368 162.034Z" fill="#F4A28C"/>
<path d="M205.235 106.068C205.235 106.068 221.885 110.943 215.41 118.418C208.935 125.892 200.286 111.591 205.235 106.068Z" fill="#F4A28C"/>
</svg>
