<svg xmlns="http://www.w3.org/2000/svg" id="coworking" width="335" height="251" viewBox="0 0 335 251" fill="none">
    <style>
        #coworking #hand_with_cup {
        transform-origin: 89px 124px;
        transform: rotate(27deg);
        transition-property: transform;
        transition-duration: 150ms;
        transition-timing-function: linear;
        }
        #coworking:hover #hand_with_cup {
        transform: rotate(0);
        }
        #coworking #cup {
        transform: translateY(0px);
        transition-property: transform;
        transition-duration: 150ms;
        transition-timing-function: linear;
        }
        #coworking:hover #cup {
        transform: translateY(-27px);
        }
    </style>
    <g>
        <path d="M147.802 111.176C147.802 111.176 166.663 113.736 164.988 141.238H149.293L147.802 111.176Z" fill="#35219A"/>
        <path opacity="0.46" d="M149.293 141.238L147.802 111.176C147.802 111.176 166.663 113.736 164.988 141.238" fill="white"/>
        <path d="M175.583 118C175.583 118 176.814 141.976 165.518 145.633C154.222 149.289 184.594 154 184.594 154L192 129.934L175.583 118Z" fill="#F4A28C"/>
        <path d="M190.95 61.152C190.95 61.152 191.511 66.5067 193.069 69.845C193.223 70.1678 193.439 70.4569 193.706 70.6958C193.972 70.9346 194.283 71.1185 194.621 71.2367C194.959 71.3549 195.317 71.4052 195.674 71.3846C196.032 71.364 196.382 71.2729 196.704 71.1167C197.773 70.6865 198.696 69.9574 199.362 69.0165C200.027 68.0757 200.407 66.9632 200.456 65.8122L201.142 60.8843C201.18 59.8845 200.905 58.8979 200.355 58.0613C199.806 57.2248 199.01 56.5797 198.077 56.2157C194.677 54.6678 190.464 57.8974 190.95 61.152Z" fill="#F4A28C"/>
        <path d="M202.256 63.6536L205.765 80.9643L196.075 82.2193L197.382 69.4517L202.256 63.6536Z" fill="#F4A28C"/>
        <path d="M211.117 79.9602C217.548 78.9259 224.136 80.2737 229.642 83.7503C235.974 87.85 241.836 95.5808 239.944 110.063C236.158 139.037 224.952 156.532 224.952 156.532L185.381 159.803C185.381 159.803 184.392 140.786 177.843 130.169C171.294 119.551 162.768 91.6819 196.05 82.2025L211.117 79.9602Z" fill="#35219A"/>
        <path d="M191.494 64.507L190.414 66.833C190.344 66.9634 190.31 67.1101 190.316 67.2579C190.321 67.4057 190.366 67.5495 190.445 67.6745C190.524 67.7995 190.635 67.9013 190.766 67.9695C190.898 68.0377 191.045 68.07 191.193 68.0629H193.295L191.494 64.507Z" fill="#F4A28C"/>
        <path opacity="0.31" d="M197.34 69.8115C198.485 69.4549 199.51 68.7923 200.305 67.8955C200.305 67.8955 201.419 71.6019 196.955 73.4677L197.34 69.8115Z" fill="#CE8172"/>
        <path d="M197.751 63.7457C197.751 63.7457 197.399 61.6958 198.965 61.5619C200.531 61.4281 201.05 64.3732 199.024 65.0509L197.751 63.7457Z" fill="#F4A28C"/>
        <path d="M192.03 60.6918C193.769 60.7783 195.51 60.5747 197.181 60.0894C197.181 60.0894 198.948 65.9461 203.839 66.8748C203.839 66.8748 207.306 57.4874 201.427 54.6678C196.494 52.3084 192.784 50.1414 189.384 53.9985C188.891 54.5571 188.563 55.2407 188.435 55.974C188.306 56.7073 188.383 57.4617 188.657 58.154C188.931 58.8464 189.391 59.4497 189.986 59.8975C190.581 60.3453 191.289 60.6202 192.03 60.6918V60.6918Z" fill="#24285B"/>
        <path d="M204.191 57.1527C207.156 57.1527 209.559 54.7516 209.559 51.7897C209.559 48.8277 207.156 46.4266 204.191 46.4266C201.226 46.4266 198.823 48.8277 198.823 51.7897C198.823 54.7516 201.226 57.1527 204.191 57.1527Z" fill="#24285B"/>
        <path d="M191.009 83.926C191.009 83.926 190.716 80.3785 196.034 78.6801C201.352 76.9817 209.266 72.8904 211.159 79.9602L191.009 83.926Z" fill="#35219A"/>
        <path opacity="0.46" d="M191.009 83.926C191.009 83.926 190.716 80.3785 196.034 78.6801C201.352 76.9817 209.266 72.8904 211.159 79.9602L191.009 83.926Z" fill="white"/>
        <path d="M197.441 63.2269C197.441 63.2269 197.441 60.8257 199.35 60.9763C201.26 61.1269 201.586 63.9214 199.35 65.2935L197.441 63.2269Z" fill="#F4A28C"/>
        <path d="M110.156 39.9592V56.6925H120.977L123.347 63.3524L126.144 56.6925H136.965V39.9592H110.156Z" fill="#E6E6E6"/>
        <path opacity="0.12" d="M122.208 52.0574C122.086 52.0521 121.966 52.0202 121.858 51.9638C121.749 51.9074 121.654 51.828 121.58 51.7311L118.749 48.0916C118.674 48.0057 118.617 47.9053 118.582 47.7965C118.547 47.6878 118.534 47.573 118.546 47.4594C118.557 47.3457 118.591 47.2355 118.646 47.1355C118.702 47.0356 118.777 46.948 118.867 46.8782C118.958 46.8084 119.062 46.7578 119.172 46.7296C119.283 46.7014 119.399 46.6962 119.511 46.7143C119.624 46.7323 119.732 46.7733 119.829 46.8346C119.925 46.8959 120.008 46.9763 120.072 47.0709L122.275 49.9323L127.761 44.0087C127.916 43.8478 128.129 43.7552 128.353 43.7513C128.577 43.7474 128.793 43.8324 128.954 43.9878C129.115 44.1431 129.208 44.356 129.212 44.5795C129.216 44.8031 129.13 45.0191 128.975 45.18L122.819 51.8231C122.738 51.9012 122.643 51.9622 122.537 52.0024C122.432 52.0427 122.32 52.0614 122.208 52.0574Z" fill="black"/>
        <path d="M183.212 16.5325V33.2659H194.032L196.402 39.9257L199.199 33.2659H210.02V16.5325H183.212Z" fill="#E6E6E6"/>
        <path opacity="0.12" d="M195.263 28.6307C195.142 28.6265 195.023 28.5958 194.914 28.5409C194.806 28.486 194.71 28.4082 194.635 28.3128L191.788 24.6733C191.719 24.5862 191.669 24.4864 191.64 24.3798C191.61 24.2731 191.603 24.1617 191.617 24.052C191.631 23.9423 191.666 23.8365 191.721 23.7406C191.777 23.6448 191.85 23.5608 191.938 23.4936C192.114 23.3587 192.336 23.2987 192.556 23.327C192.775 23.3552 192.975 23.4693 193.111 23.6442L195.339 26.5056L200.824 20.582C200.901 20.5023 200.993 20.4386 201.095 20.3945C201.196 20.3503 201.306 20.3266 201.417 20.3246C201.527 20.3227 201.637 20.3426 201.741 20.3831C201.844 20.4237 201.938 20.4842 202.018 20.5611C202.097 20.638 202.161 20.7298 202.205 20.8314C202.25 20.9329 202.273 21.0422 202.275 21.1529C202.277 21.2636 202.257 21.3736 202.217 21.4766C202.176 21.5797 202.116 21.6737 202.039 21.7533L195.875 28.3965C195.794 28.4745 195.698 28.5355 195.593 28.5758C195.488 28.616 195.376 28.6347 195.263 28.6307Z" fill="black"/>
        <path d="M127.61 84.1854C127.61 84.1854 127.878 90.0421 126.772 93.8824C126.66 94.2538 126.476 94.5995 126.23 94.8997C125.984 95.1999 125.682 95.4489 125.339 95.6322C124.997 95.8156 124.622 95.9298 124.236 95.9683C123.849 96.0069 123.459 95.969 123.087 95.8569C121.161 95.2545 118.724 93.8824 118.205 90.7616L116.664 85.5743C116.46 84.5061 116.593 83.4013 117.043 82.4112C117.492 81.4212 118.238 80.5943 119.176 80.0439C122.577 77.81 127.627 80.6128 127.61 84.1854Z" fill="#F4A28C"/>
        <path d="M117.032 88.2181L114.855 107.311L125.466 107.754L122.794 93.6899L117.032 88.2181Z" fill="#F4A28C"/>
        <path d="M126.144 84.3695C124.331 84.3672 122.523 84.1538 120.759 83.7336C121.25 84.5516 121.49 85.4949 121.452 86.4476C121.413 87.4004 121.097 88.3211 120.541 89.0967C120.015 89.8557 119.242 90.409 118.353 90.6622C117.464 90.9155 116.515 90.853 115.667 90.4855L116.069 82.9555C116.099 81.8866 116.415 80.8452 116.985 79.9401C117.556 79.035 118.358 78.2994 119.31 77.81C120.143 77.3799 121.001 77.0027 121.881 76.6805C124.084 75.9024 127.199 77.5172 129.209 76.0949C129.412 75.9576 129.646 75.8751 129.89 75.8553C130.134 75.8355 130.378 75.8791 130.6 75.9819C130.822 76.0847 131.013 76.2432 131.156 76.4419C131.298 76.6405 131.386 76.8727 131.412 77.1156C131.655 79.4164 131.094 82.9723 127.945 84.1269C127.362 84.3073 126.754 84.3893 126.144 84.3695V84.3695Z" fill="#24285B"/>
        <path d="M121.169 88.946C121.169 88.946 121.22 86.687 119.494 86.7958C117.769 86.9046 117.702 90.1425 119.997 90.5524L121.169 88.946Z" fill="#F4A28C"/>
        <path d="M127.593 87.85L129.134 90.1759C129.22 90.3086 129.271 90.4606 129.283 90.618C129.295 90.7754 129.267 90.9333 129.202 91.0772C129.137 91.2211 129.037 91.3465 128.911 91.4419C128.785 91.5373 128.637 91.5997 128.481 91.6234L126.22 91.9497L127.593 87.85Z" fill="#F4A28C"/>
        <path opacity="0.31" d="M122.644 94.1501C121.284 94.1505 119.954 93.7551 118.816 93.0122C118.816 93.0122 118.967 96.5597 123.565 98.9693L122.644 94.1501Z" fill="#CE8172"/>
        <path d="M139.862 108.499C139.862 108.499 98.5151 100.584 84.3865 108.499C70.2579 116.414 99.8886 190.074 99.8886 190.074L143.439 188.702C143.439 188.702 181.545 116.071 139.862 108.499Z" fill="#35219A"/>
        <path opacity="0.08" d="M95.2489 112.615C95.2489 112.615 108.724 118.589 107.677 138.669C106.631 158.749 134.544 149.546 150.315 140.962L142.501 169.843H86.5305V131.557L95.2489 112.615Z" fill="black"/>
        <path d="M224.952 156.532L230.162 205.954L171.821 201.135L180.749 159.82L224.952 156.532Z" fill="#24285B"/>
        <path opacity="0.08" d="M211.117 86.5448C211.117 86.5448 203.529 100.618 213.437 110.381C223.344 120.145 223.068 124.605 223.068 124.605L191.787 112.615L182.701 111.218L175.037 124.663C176.404 127.77 177.954 130.792 179.677 133.716L181.587 138.167L203.253 141.907C204.682 142.15 206.045 142.682 207.26 143.472C208.475 144.261 209.515 145.291 210.316 146.497C211.118 147.704 211.663 149.061 211.919 150.487C212.174 151.912 212.135 153.374 211.804 154.783L211.117 157.695L224.952 156.54C224.952 156.54 232.783 143.154 235.321 131.926C237.858 120.698 240.304 112.624 240.304 112.624L211.117 86.5448Z" fill="black"/>
        <path opacity="0.58" d="M255.923 161.025C255.923 161.025 248.21 158.925 246.535 151.755C246.535 151.755 258.486 149.337 258.821 161.661L255.923 161.025Z" fill="#35219A"/>
        <path opacity="0.73" d="M256.87 160.264C256.87 160.264 251.476 151.755 256.225 143.79C256.225 143.79 265.312 149.563 261.25 160.28L256.87 160.264Z" fill="#35219A"/>
        <path d="M258.26 160.272C258.26 160.272 261.107 151.278 269.717 149.579C269.717 149.579 271.325 155.436 264.139 160.297L258.26 160.272Z" fill="#35219A"/>
        <path d="M252.665 160.071L254.232 170.755L264.081 170.797L265.529 160.121L252.665 160.071Z" fill="#24285B"/>
        <path d="M277.891 175.006H57.1008V227.264H277.891V175.006Z" fill="#C9C9C9"/>
        <path d="M278 170H57V179H278V170Z" fill="#E6E6E6"/>
        <path opacity="0.08" d="M243.713 169.944C243.713 169.944 248.319 211.124 215.238 227.264H277.883V169.843L243.713 169.944Z" fill="black"/>
        <path d="M182.014 111.176H186.428C187.848 111.178 189.21 111.743 190.215 112.747C191.22 113.751 191.785 115.111 191.788 116.531C191.788 117.234 191.649 117.93 191.38 118.58C191.11 119.23 190.715 119.82 190.218 120.317C189.72 120.814 189.129 121.209 188.479 121.478C187.828 121.747 187.131 121.886 186.428 121.886H182.014" stroke="#FFD200" stroke-width="2" stroke-miterlimit="10"/>
        <path d="M210.991 88.193C210.98 86.7485 211.321 85.3228 211.986 84.0399C212.65 82.757 213.619 81.6555 214.806 80.8311C215.994 80.0067 217.365 79.4843 218.8 79.3092C220.235 79.1341 221.692 79.3116 223.043 79.8264C228.998 82.0519 237.105 86.9966 245.237 97.89C261.007 119.016 265.613 124.454 259.122 131.775C252.632 139.096 198.337 122.99 198.337 122.99C198.337 122.99 186.612 121.108 188.613 114.623C190.615 108.139 200.288 115.46 200.288 115.46L239.148 119.016C239.148 119.016 211.326 106.257 210.991 88.193Z" fill="#F4A28C"/>
        <path d="M185.59 108.398H172.927V124.63H185.59V108.398Z" fill="#24285B"/>
        <path opacity="0.13" d="M179.493 119.936C181.648 119.936 183.396 118.191 183.396 116.037C183.396 113.884 181.648 112.138 179.493 112.138C177.338 112.138 175.59 113.884 175.59 116.037C175.59 118.191 177.338 119.936 179.493 119.936Z" fill="white"/>
        <path opacity="0.08" d="M190.339 145.823C190.339 145.823 177.282 167.425 146.562 169.843L181.738 169.986L190.339 145.823Z" fill="black"/>
        <path opacity="0.2" d="M185.59 108.399C185.59 108.399 188.052 100.869 182.014 97.9904C175.976 95.1123 171.369 95.2629 172.927 83.9261C174.485 72.5892 171.872 65.8708 159.368 63.6536C146.864 61.4365 132.568 71.7609 142.501 82.2193C152.433 92.6776 164.443 87.1305 162.601 97.9904C160.758 108.85 172.902 108.399 172.902 108.399H185.59Z" fill="#35219A"/>
        <g id="hand_with_cup">
            <path d="M74.8578 118.197C72.3757 127.604 73.5328 143.512 93.4945 165.445C94.8725 166.957 96.5662 168.147 98.4557 168.933C100.345 169.718 102.385 170.079 104.43 169.991C106.475 169.902 108.476 169.366 110.292 168.419C112.108 167.473 113.694 166.141 114.938 164.515L147.401 121.895L141.045 115.856L107.243 150.403C107.243 150.403 103.464 123.222 92.3175 112.933C90.96 111.698 89.3051 110.835 87.5141 110.43C85.7232 110.025 83.8573 110.091 82.0987 110.621C80.34 111.151 78.7485 112.128 77.4795 113.456C76.2104 114.784 75.3072 116.417 74.8578 118.197V118.197Z" fill="#35219A"/>
            <path opacity="0.46" d="M74.8578 118.197C72.3757 127.604 73.5328 143.512 93.4945 165.445C94.8725 166.957 96.5662 168.147 98.4557 168.933C100.345 169.718 102.385 170.079 104.43 169.991C106.475 169.902 108.476 169.366 110.292 168.419C112.108 167.473 113.694 166.141 114.938 164.515L147.401 121.895L141.045 115.856L107.243 150.403C107.243 150.403 103.464 123.222 92.3175 112.933C90.96 111.698 89.3051 110.835 87.5141 110.43C85.7232 110.025 83.8573 110.091 82.0987 110.621C80.34 111.151 78.7485 112.128 77.4795 113.456C76.2104 114.784 75.3072 116.417 74.8578 118.197V118.197Z" fill="white"/>
            <path d="M142 117C142 117 147.987 111.687 151.584 114.206C155.18 116.725 153.521 119.34 146.5 121L142 117Z" fill="#F4A28C"/>
        </g>
        <g id="cup">
            <path d="M160.774 139.778H156.36C154.939 139.78 153.577 140.345 152.572 141.349C151.568 142.352 151.002 143.713 151 145.132C151 145.836 151.139 146.532 151.408 147.182C151.677 147.831 152.072 148.422 152.57 148.919C153.068 149.416 153.659 149.81 154.309 150.08C154.959 150.349 155.656 150.487 156.36 150.487H160.774" stroke="#FFD200" stroke-width="2" stroke-miterlimit="10"/>
            <path d="M157.198 137H169.861V153.231H157.198V137Z" fill="#24285B"/>
            <path opacity="0.13" d="M163.295 148.538C161.139 148.538 159.392 146.792 159.392 144.639C159.392 142.486 161.139 140.74 163.295 140.74C165.45 140.74 167.197 142.486 167.197 144.639C167.197 146.792 165.45 148.538 163.295 148.538Z" fill="white"/>
        </g>
        <g id="case">
            <path d="M187 137H139V170H187V137Z" fill="#FFD200"/>
            <path d="M231 153H195V170H231V153Z" fill="#FFD200"/>
            <path d="M193 151.019V157.986C192.998 158.343 193.07 158.698 193.212 159.026C193.353 159.355 193.56 159.651 193.821 159.896C194.081 160.141 194.389 160.329 194.726 160.45C195.062 160.57 195.42 160.619 195.777 160.595C196.485 160.601 197.175 160.377 197.745 159.957C198.315 159.536 198.734 158.943 198.939 158.264C200.059 154.692 203.626 155.585 203.519 157.929C203.411 160.272 206.751 161.817 208.427 159.873C210.103 157.929 209.989 154.388 213.221 155.877C216.453 157.365 215.454 160.392 219.805 158.936C224.157 157.479 222.152 153.014 224.606 155.25C225.922 156.447 227.136 157.675 228.572 158.302C229.059 158.515 229.592 158.602 230.121 158.554C230.651 158.507 231.159 158.326 231.601 158.029C232.042 157.733 232.401 157.33 232.646 156.857C232.89 156.384 233.012 155.858 232.999 155.326V151L193 151.019Z" fill="#FFE259"/>
            <path d="M137 136V150.318C136.997 151.052 137.089 151.779 137.268 152.454C137.448 153.128 137.712 153.736 138.045 154.238C138.377 154.741 138.77 155.128 139.199 155.375C139.629 155.622 140.085 155.723 140.54 155.673C142.165 155.461 143.872 154.34 144.544 150.894C145.962 143.558 150.519 145.387 150.375 150.207C150.23 155.027 154.504 158.169 156.651 154.188C158.797 150.207 158.646 142.932 162.776 145.993C166.906 149.055 165.619 155.249 171.174 152.268C176.728 149.287 174.161 140.143 177.293 144.7C178.969 147.155 180.525 149.681 182.351 150.965C182.971 151.386 183.646 151.553 184.316 151.451C184.986 151.349 185.629 150.981 186.189 150.38C186.749 149.78 187.207 148.965 187.523 148.009C187.839 147.052 188.003 145.985 188 144.902V136.04L137 136Z" fill="#FFE259"/>
        </g>
    </g>
</svg>