<svg width="283" height="254" viewBox="0 0 283 254" fill="none" xmlns="http://www.w3.org/2000/svg">
<path d="M167.658 30.291H144.816V33.9066H167.658V30.291Z" fill="#E6E6E6"/>
<path d="M167.658 26.6582H150.383V30.2738H167.658V26.6582Z" fill="#C9C9C9"/>
<path opacity="0.45" d="M136.152 240.896C201.994 240.896 255.37 233.213 255.37 223.735C255.37 214.257 201.994 206.574 136.152 206.574C70.3095 206.574 16.9336 214.257 16.9336 223.735C16.9336 233.213 70.3095 240.896 136.152 240.896Z" fill="#E6E6E6"/>
<path d="M192.418 62.4121V78.4552H202.775L205.034 84.8393L207.713 78.4552H218.069V62.4121H192.418Z" fill="#E6E6E6"/>
<path opacity="0.12" d="M203.951 74.0197C203.835 74.015 203.721 73.9852 203.617 73.9325C203.513 73.8797 203.422 73.8052 203.349 73.714L200.645 70.2207C200.579 70.1387 200.531 70.0443 200.502 69.9433C200.474 69.8422 200.466 69.7364 200.479 69.6322C200.492 69.528 200.525 69.4275 200.578 69.3366C200.63 69.2456 200.701 69.1661 200.784 69.1028C200.867 69.037 200.962 68.9883 201.064 68.9597C201.165 68.931 201.272 68.923 201.376 68.936C201.481 68.949 201.582 68.9828 201.674 69.0355C201.766 69.0881 201.846 69.1585 201.91 69.2425L204.039 71.9848L209.274 66.3081C209.347 66.2329 209.434 66.1731 209.531 66.1322C209.628 66.0914 209.732 66.0703 209.836 66.0703C209.941 66.0703 210.045 66.0914 210.142 66.1322C210.239 66.1731 210.326 66.2329 210.399 66.3081C210.478 66.3792 210.541 66.4652 210.586 66.5611C210.63 66.657 210.656 66.7609 210.66 66.8666C210.664 66.9724 210.647 67.0779 210.609 67.1769C210.572 67.276 210.516 67.3666 210.443 67.4435L204.553 73.7577C204.478 73.8418 204.385 73.9087 204.281 73.9539C204.177 73.9991 204.065 74.0215 203.951 74.0197Z" fill="black"/>
<path d="M54.1289 66.1416V82.1847H64.4855L66.754 88.5688L69.4326 82.1847H79.7891V66.1416H54.1289Z" fill="#E6E6E6"/>
<path opacity="0.12" d="M65.6628 77.7479C65.5464 77.7432 65.4324 77.7134 65.3286 77.6607C65.2247 77.6079 65.1334 77.5334 65.0608 77.4422L62.3561 73.9489C62.236 73.7802 62.1856 73.5716 62.2154 73.3666C62.2453 73.1616 62.3531 72.9761 62.5163 72.8488C62.6796 72.7215 62.8856 72.6622 63.0915 72.6833C63.2973 72.7044 63.4871 72.8042 63.6212 72.962L65.7501 75.7043L70.9851 70.0276C71.059 69.9521 71.1472 69.8921 71.2446 69.8511C71.342 69.8102 71.4466 69.7891 71.5522 69.7891C71.6578 69.7891 71.7624 69.8102 71.8598 69.8511C71.9572 69.8921 72.0454 69.9521 72.1193 70.0276C72.2675 70.1793 72.3504 70.3831 72.3504 70.5953C72.3504 70.8074 72.2675 71.0112 72.1193 71.1629L66.2212 77.5295C66.1473 77.6012 66.0598 77.6573 65.9639 77.6948C65.8681 77.7323 65.7657 77.7503 65.6628 77.7479Z" fill="black"/>
<path d="M188.719 33.9248H84.2812V221.403H188.719V33.9248Z" fill="#C9C9C9"/>
<path d="M179.365 55.2949H92.918V187.238H179.365V55.2949Z" fill="white"/>
<path opacity="0.56" d="M136.815 214.364C142.457 214.364 147.032 209.785 147.032 204.137C147.032 198.489 142.457 193.91 136.815 193.91C131.172 193.91 126.598 198.489 126.598 204.137C126.598 209.785 131.172 214.364 136.815 214.364Z" fill="white"/>
<path opacity="0.12" d="M156.941 41.252H127.66V45.5225H156.941V41.252Z" fill="black"/>
<path d="M117.062 48.6314C119.697 48.6314 121.834 46.4926 121.834 43.8543C121.834 41.2159 119.697 39.0771 117.062 39.0771C114.426 39.0771 112.289 41.2159 112.289 43.8543C112.289 46.4926 114.426 48.6314 117.062 48.6314Z" fill="white"/>
<path d="M200.479 101.66C200.226 103.55 200.226 105.465 200.479 107.354C200.577 107.8 200.846 108.189 201.228 108.439C201.609 108.689 202.073 108.779 202.521 108.691C203.244 108.583 203.921 108.268 204.47 107.785C205.02 107.302 205.418 106.67 205.618 105.966L206.77 103.014C206.937 102.4 206.912 101.75 206.696 101.151C206.481 100.552 206.086 100.035 205.566 99.6691C203.725 98.2019 200.645 99.5818 200.479 101.66Z" fill="#F4A28C"/>
<path opacity="0.08" d="M84.1487 161.492L84.6024 170.977L93.7637 169.073L97.6637 152.532C98.3983 149.412 100.08 146.597 102.479 144.473C104.877 142.349 107.874 141.021 111.057 140.672C118.037 139.912 126.692 139.196 132.215 139.58C142.624 140.305 164.611 137.834 172.001 144.157C179.391 150.479 180.167 167.527 188.735 173.78V161.911L186.231 129.974L176.782 126.751L143.33 131.72L139.762 132.332L136.062 134.34L128.21 130.41L82.9883 128.515L84.1487 161.492Z" fill="black"/>
<path d="M206.589 103.556L207.863 114.708L201.668 114.97L203.23 106.743L206.589 103.556Z" fill="#F4A28C"/>
<path d="M73.426 115.092L132.198 128.419L131.124 133.423C131.124 133.423 101.739 132.681 79.7778 136.916C57.8169 141.152 73.426 115.092 73.426 115.092Z" fill="#35219A"/>
<path opacity="0.08" d="M73.426 115.092L132.198 128.419L131.124 133.423C131.124 133.423 101.739 132.681 79.7778 136.916C57.8169 141.152 73.426 115.092 73.426 115.092Z" fill="black"/>
<path d="M200.307 103.817L199.321 105.092C199.267 105.166 199.231 105.251 199.217 105.342C199.204 105.432 199.212 105.524 199.242 105.61C199.272 105.696 199.323 105.774 199.39 105.836C199.457 105.898 199.538 105.942 199.626 105.966L200.926 106.271L200.307 103.817Z" fill="#F4A28C"/>
<path d="M199.181 115.092L140.645 129.493L142.215 132.672C142.215 132.672 170.859 132.672 192.82 136.864C214.781 141.056 199.181 115.092 199.181 115.092Z" fill="#F4A28C"/>
<path opacity="0.31" d="M202.81 108.533C203.587 108.372 204.3 107.987 204.86 107.424C204.557 109.02 203.659 110.44 202.348 111.397L202.81 108.533Z" fill="#CE8172"/>
<path d="M172.605 134.175L174.106 121.276L194.793 115.948L197.158 137.354C188.842 137.998 180.484 136.915 172.605 134.175Z" fill="#35219A"/>
<path opacity="0.08" d="M172.605 134.175L174.106 121.276L194.793 115.948L197.158 137.354C188.842 137.998 180.484 136.915 172.605 134.175Z" fill="black"/>
<path d="M194.791 115.947C194.791 115.947 221.35 110 230.861 115.336C240.371 120.672 221.699 170.976 221.699 170.976L192.383 170.05C192.383 170.05 166.723 121.056 194.791 115.947Z" fill="#35219A"/>
<path d="M200.726 218.215C200.726 218.215 199.357 220.678 196.966 220.494C194.575 220.311 193.581 222.52 195.605 223.464C197.629 224.407 203.553 222.59 203.553 222.59L204.059 218.224L200.726 218.215Z" fill="#35219A"/>
<path d="M222.207 217.7C222.207 217.7 223.184 220.32 225.575 220.53C227.965 220.739 228.611 223.054 226.447 223.674C224.283 224.294 218.734 221.578 218.734 221.578L218.891 217.211L222.207 217.7Z" fill="#35219A"/>
<path d="M192.383 170.051L199.878 218.216H204.781C204.781 218.216 200.244 181.99 208.175 177.623C216.106 173.256 217.642 218.216 217.642 218.216L222.877 217.796L222.816 168.139L192.383 170.051Z" fill="#24285B"/>
<path d="M72.1186 101.66C72.3767 103.55 72.3767 105.465 72.1186 107.354C72.0201 107.8 71.7514 108.189 71.3698 108.439C70.9883 108.689 70.5242 108.779 70.077 108.691C69.3541 108.584 68.6775 108.27 68.1293 107.786C67.5811 107.303 67.1848 106.67 66.9883 105.966L65.8279 103.014C65.6599 102.399 65.6863 101.748 65.9035 101.149C66.1207 100.55 66.518 100.033 67.0407 99.6691C68.8817 98.2019 71.9354 99.5818 72.1186 101.66Z" fill="#F4A28C"/>
<path d="M66.0112 103.556L64.7461 114.708L70.9408 114.97L69.3703 106.743L66.0112 103.556Z" fill="#F4A28C"/>
<path d="M72.2925 103.817L73.3046 105.092C73.3612 105.165 73.3986 105.251 73.4135 105.342C73.4284 105.432 73.4203 105.526 73.3899 105.613C73.3595 105.699 73.3078 105.777 73.2396 105.839C73.1713 105.901 73.0887 105.944 72.9992 105.966L71.6992 106.271L72.2925 103.817Z" fill="#F4A28C"/>
<path opacity="0.31" d="M69.7887 108.533C69.0114 108.372 68.2983 107.987 67.7383 107.424C68.0432 109.021 68.9449 110.442 70.2598 111.397L69.7887 108.533Z" fill="#CE8172"/>
<path d="M77.8079 115.947C77.8079 115.947 51.249 110 41.7387 115.336C32.2285 120.672 50.9 170.976 50.9 170.976L80.2247 170.05C80.2247 170.05 105.876 121.056 77.8079 115.947Z" fill="#35219A"/>
<path d="M71.8837 218.215C71.8837 218.215 73.2448 220.678 75.6355 220.494C78.0261 220.311 79.0295 222.52 76.9966 223.464C74.9637 224.407 69.0568 222.59 69.0568 222.59L68.5508 218.224L71.8837 218.215Z" fill="#35219A"/>
<path d="M50.3937 217.7C50.3937 217.7 49.4252 220.32 47.0346 220.53C44.6439 220.739 43.9895 223.054 46.1621 223.674C48.3346 224.294 53.8837 221.578 53.8837 221.578L53.7179 217.211L50.3937 217.7Z" fill="#35219A"/>
<path opacity="0.08" d="M54.7452 120C54.7452 120 63.1386 125.441 58.8634 137.868C54.5881 150.296 53.8989 159.204 63.9762 156.086C74.0536 152.968 73.312 139.056 73.312 139.056L83.59 140.646L84.5847 160.392L80.2222 170.051L54.7452 168.444L44.3712 165.824L40.5234 152.776L47.5732 130.707L54.7452 120Z" fill="black"/>
<path d="M80.2232 170.051L72.7197 218.216H67.8162C67.8162 218.216 72.3619 181.99 64.4309 177.623C56.4999 173.256 54.9381 218.216 54.9381 218.216L49.7031 217.796L49.7555 168.139L80.2232 170.051Z" fill="#24285B"/>
<path d="M49.5711 113.773C49.5711 113.773 33.0547 110.987 33.0547 137.004C33.0547 163.02 37.0246 186.181 75.1528 162.977L72.2561 158.549C72.2561 158.549 51.7175 167.597 47.3462 159.649C42.975 151.702 64.4996 118.14 49.5711 113.773Z" fill="#35219A"/>
<path opacity="0.46" d="M49.5711 113.773C49.5711 113.773 33.0547 110.987 33.0547 137.004C33.0547 163.02 37.0246 186.181 75.1528 162.977L72.2561 158.549C72.2561 158.549 51.7175 167.597 47.3462 159.649C42.975 151.702 64.4996 118.14 49.5711 113.773Z" fill="white"/>
<path d="M74.5055 157.861L88.4922 161.383L93.7581 140.429L79.7714 136.908L74.5055 157.861Z" fill="#FFD200"/>
<path opacity="0.08" d="M221.256 121.275C221.256 121.275 214.878 126.341 218.752 137.362C222.626 148.384 218.953 167.056 207.863 169.073L222.809 168.138L230.383 143.091L221.256 121.275Z" fill="black"/>
<path d="M71.4637 101.809C71.2094 101.893 70.95 101.96 70.6872 102.01C70.3185 102.094 69.9591 102.214 69.614 102.368L69.3348 102.49C69.1367 102.577 68.9683 102.72 68.8505 102.902C68.7327 103.084 68.6705 103.296 68.6717 103.512C68.7143 103.93 68.6691 104.352 68.5393 104.751C68.4094 105.15 68.1976 105.518 67.9174 105.83C67.6373 106.143 67.295 106.393 66.9126 106.565C66.5301 106.738 66.1159 106.828 65.6965 106.831C65.6965 106.831 63.0004 102.805 65.1555 99.7132C65.7864 98.8577 66.6003 98.1541 67.5378 97.654C68.4752 97.1538 69.5125 96.8697 70.5737 96.8225C71.1811 96.8151 71.7713 97.0238 72.2394 97.4113C72.7074 97.7987 73.023 98.3399 73.1298 98.9384C73.2366 99.5369 73.1278 100.154 72.8227 100.68C72.5176 101.205 72.036 101.606 71.4637 101.809Z" fill="#24285B"/>
<path d="M68.6186 105.407C68.7146 105.285 68.7764 105.14 68.7979 104.987C68.8194 104.833 68.7997 104.677 68.7408 104.533C68.5488 104.079 68.1736 103.468 67.5455 103.555C66.9173 103.643 66.7864 104.673 67.2314 105.302C67.3128 105.409 67.4177 105.495 67.538 105.555C67.6583 105.615 67.7908 105.646 67.925 105.646C68.0592 105.646 68.1916 105.615 68.3119 105.555C68.4322 105.495 68.5372 105.409 68.6186 105.302V105.407Z" fill="#F4A28C"/>
<path d="M198.788 98.1489C199.24 98.8141 199.538 99.572 199.66 100.367C199.658 100.611 199.715 100.851 199.825 101.068C199.935 101.286 200.095 101.474 200.292 101.616C200.49 101.759 200.718 101.852 200.959 101.889C201.199 101.925 201.445 101.904 201.676 101.826C204.293 101.372 203.421 106.306 206.85 105.747C207.368 105.729 207.867 105.544 208.272 105.22C208.677 104.896 208.968 104.45 209.101 103.948C209.22 103.427 209.453 102.939 209.784 102.519C210.114 102.099 210.533 101.758 211.011 101.52C211.736 101.171 212.294 100.463 211.954 99.0572C211.195 95.8782 208.734 99.8344 207.87 96.4372C207.007 93.0399 205.567 93.5726 204.869 94.184C204.171 94.7953 203.456 95.7123 202.356 94.5944C201.257 93.4766 197.252 95.6948 198.788 98.1489Z" fill="#24285B"/>
<path d="M203.989 105.407C203.893 105.285 203.831 105.14 203.809 104.987C203.788 104.833 203.807 104.677 203.866 104.533C204.058 104.079 204.433 103.468 205.053 103.555C205.672 103.643 205.812 104.673 205.376 105.302C205.294 105.409 205.189 105.495 205.069 105.555C204.949 105.615 204.816 105.646 204.682 105.646C204.548 105.646 204.415 105.615 204.295 105.555C204.175 105.495 204.07 105.409 203.989 105.302V105.407Z" fill="#F4A28C"/>
<path d="M132.043 129.152L134.311 129.834C134.935 130.014 135.498 130.36 135.941 130.835C136.383 131.31 136.689 131.897 136.824 132.532C137.069 133.72 137.086 135.021 136.152 135.414C134.32 136.174 131.371 132.288 131.371 132.288L132.043 129.152Z" fill="#F4A28C"/>
<path d="M141.883 129.152L139.754 129.79C139.062 129.993 138.441 130.388 137.963 130.929C137.484 131.469 137.168 132.134 137.049 132.847C136.866 133.938 136.927 135.056 137.774 135.414C139.606 136.174 142.555 132.288 142.555 132.288L141.883 129.152Z" fill="#F4A28C"/>
<path d="M136.063 120C149.743 120 160.833 108.899 160.833 95.206C160.833 81.5127 149.743 70.4121 136.063 70.4121C122.383 70.4121 111.293 81.5127 111.293 95.206C111.293 108.899 122.383 120 136.063 120Z" fill="#24285B"/>
<path d="M127 95.4767L132.977 105.223L145.139 87.8525" stroke="white" stroke-width="5" stroke-linecap="round" stroke-linejoin="round"/>
<path d="M228.295 114.184C233.906 114.673 241.016 119.546 245.868 138.008L228.854 144.122L221.612 122.873C221.261 121.846 221.169 120.747 221.345 119.675C221.521 118.604 221.96 117.592 222.622 116.732C223.284 115.871 224.148 115.188 225.138 114.743C226.128 114.299 227.213 114.106 228.295 114.184Z" fill="#35219A"/>
<path opacity="0.46" d="M228.295 114.184C233.906 114.673 241.016 119.546 245.868 138.008L228.854 144.122L221.612 122.873C221.261 121.846 221.169 120.747 221.345 119.675C221.521 118.604 221.96 117.592 222.622 116.732C223.284 115.871 224.148 115.188 225.138 114.743C226.128 114.299 227.213 114.106 228.295 114.184Z" fill="white"/>
<path d="M62.5391 114.193C62.5391 114.193 62.923 109.826 68.0445 111.398C73.1661 112.97 73.4278 115.092 73.4278 115.092L62.5391 114.193Z" fill="#35219A"/>
<path opacity="0.46" d="M62.5391 114.193C62.5391 114.193 62.923 109.826 68.0445 111.398C73.1661 112.97 73.4278 115.092 73.4278 115.092L62.5391 114.193Z" fill="white"/>
<path d="M244.951 138.008L248.895 152.06C249.827 155.387 249.44 158.947 247.814 161.996C246.189 165.045 243.45 167.348 240.17 168.426L228.234 171.413C227.587 171.569 226.993 171.894 226.512 172.354C226.031 172.814 225.68 173.393 225.494 174.033C225.128 175.299 224.5 176.653 223.461 176.574C219.16 176.19 223.261 170.068 223.261 170.068L234.917 162.784C236.355 161.884 237.404 160.477 237.856 158.841C238.308 157.205 238.131 155.458 237.36 153.946L231.802 143.134L244.951 138.008Z" fill="#F4A28C"/>
<path d="M156.386 147.65H117.062V165.781H156.386V147.65Z" fill="#FFD200"/>
<path opacity="0.34" d="M149.333 172.602H124.301V177.92H149.333V172.602Z" fill="#C9C9C9"/>
<path d="M72.8086 159.423C72.8086 159.423 75.6093 155.17 78.2443 157.318C80.8792 159.466 74.4402 161.912 74.4402 161.912L72.8086 159.423Z" fill="#F4A28C"/>
<path opacity="0.46" d="M152.458 150.681H131.492V155.187H152.458V150.681Z" fill="white"/>
<path opacity="0.58" d="M165.719 25.8289C165.719 25.8289 159.333 24.0822 157.945 18.1348C157.945 18.1348 167.839 16.1349 168.119 26.3529L165.719 25.8289Z" fill="#35219A"/>
<path opacity="0.73" d="M166.505 25.1912C166.505 25.1912 162.046 18.1346 165.972 11.5322C165.972 11.5322 173.493 16.3181 170.152 25.2086L166.505 25.1912Z" fill="#35219A"/>
<path d="M167.656 25.2002C167.656 25.2002 170.012 17.7419 177.132 16.3271C177.132 16.3271 178.467 21.1741 172.525 25.2177L167.656 25.2002Z" fill="#35219A"/>
<path d="M163.023 25.0254L164.315 33.8897L172.464 33.9247L173.668 25.0778L163.023 25.0254Z" fill="#24285B"/>
</svg>
